%FSLAX23Y23*%
%MOIN*%
G70*
G01*
G75*
G04 Layer_Physical_Order=2*
G04 Layer_Color=16711680*
%ADD10R,0.024X0.024*%
%ADD11R,0.012X0.016*%
%ADD12R,0.126X0.055*%
%ADD13R,0.031X0.024*%
%ADD14R,0.018X0.012*%
%ADD15R,0.024X0.020*%
%ADD16R,0.024X0.031*%
%ADD17R,0.039X0.039*%
%ADD18R,0.033X0.014*%
%ADD19R,0.028X0.039*%
%ADD20R,0.039X0.079*%
%ADD21R,0.039X0.063*%
%ADD22R,0.059X0.059*%
%ADD23R,0.020X0.010*%
%ADD24R,0.010X0.020*%
G04:AMPARAMS|DCode=25|XSize=20mil|YSize=10mil|CornerRadius=0mil|HoleSize=0mil|Usage=FLASHONLY|Rotation=90.000|XOffset=0mil|YOffset=0mil|HoleType=Round|Shape=Octagon|*
%AMOCTAGOND25*
4,1,8,0.002,0.010,-0.002,0.010,-0.005,0.007,-0.005,-0.007,-0.002,-0.010,0.002,-0.010,0.005,-0.007,0.005,0.007,0.002,0.010,0.0*
%
%ADD25OCTAGOND25*%

%ADD26R,0.039X0.039*%
%ADD27C,0.010*%
%ADD28C,0.010*%
%ADD29C,0.012*%
%ADD30C,0.020*%
%ADD31C,0.016*%
%ADD32C,0.014*%
%ADD33P,0.068X8X292.5*%
%ADD34P,0.051X8X202.5*%
%ADD35P,0.068X8X202.5*%
%ADD36O,0.079X0.059*%
%ADD37P,0.128X8X22.5*%
%ADD38C,0.059*%
%ADD39C,0.024*%
%ADD40C,0.026*%
G36*
X248Y-44D02*
X-1346D01*
Y1243D01*
X-1119D01*
Y1237D01*
X-1137Y1219D01*
Y1181D01*
X-1119Y1163D01*
X-1081D01*
X-1063Y1181D01*
Y1219D01*
X-1081Y1237D01*
Y1237D01*
D01*
Y1239D01*
X-1077Y1243D01*
X-919D01*
Y1237D01*
X-937Y1219D01*
Y1181D01*
X-919Y1163D01*
X-881D01*
X-863Y1181D01*
Y1219D01*
X-881Y1237D01*
Y1237D01*
D01*
Y1239D01*
X-877Y1243D01*
X-819D01*
Y1237D01*
X-837Y1219D01*
Y1181D01*
X-819Y1163D01*
X-781D01*
X-763Y1181D01*
Y1219D01*
X-781Y1237D01*
Y1237D01*
D01*
Y1239D01*
X-777Y1243D01*
X-719D01*
Y1237D01*
X-737Y1219D01*
Y1181D01*
X-719Y1163D01*
X-681D01*
X-663Y1181D01*
Y1219D01*
X-681Y1237D01*
Y1237D01*
D01*
Y1239D01*
X-677Y1243D01*
X-619D01*
Y1237D01*
X-637Y1219D01*
Y1181D01*
X-619Y1163D01*
X-581D01*
X-563Y1181D01*
Y1219D01*
X-581Y1237D01*
Y1237D01*
D01*
Y1239D01*
X-577Y1243D01*
X-519D01*
Y1237D01*
X-537Y1219D01*
Y1181D01*
X-519Y1163D01*
X-481D01*
X-463Y1181D01*
Y1219D01*
X-481Y1237D01*
Y1237D01*
D01*
Y1239D01*
X-477Y1243D01*
X-419D01*
Y1237D01*
X-437Y1219D01*
Y1181D01*
X-419Y1163D01*
X-381D01*
X-363Y1181D01*
Y1219D01*
X-381Y1237D01*
Y1237D01*
D01*
Y1239D01*
X-377Y1243D01*
X-319D01*
Y1237D01*
X-337Y1219D01*
Y1181D01*
X-319Y1163D01*
X-281D01*
X-263Y1181D01*
Y1219D01*
X-281Y1237D01*
Y1237D01*
D01*
Y1239D01*
X-277Y1243D01*
X-219D01*
Y1237D01*
X-237Y1219D01*
Y1181D01*
X-219Y1163D01*
X-181D01*
X-163Y1181D01*
Y1219D01*
X-181Y1237D01*
Y1237D01*
D01*
Y1239D01*
X-177Y1243D01*
X-119D01*
Y1237D01*
X-137Y1219D01*
Y1181D01*
X-136Y1180D01*
X-187Y1129D01*
X-187Y1128D01*
X-187Y1128D01*
X-188Y1127D01*
X-188Y1127D01*
X-188Y1127D01*
X-188Y1126D01*
X-189Y1126D01*
X-189Y1125D01*
X-189Y1125D01*
X-189Y1124D01*
X-189Y1124D01*
X-190Y1123D01*
X-190Y1123D01*
X-190Y1122D01*
X-190Y1122D01*
X-190Y1121D01*
Y1084D01*
X-190Y1083D01*
X-190Y1083D01*
X-190Y1082D01*
X-190Y1082D01*
X-189Y1081D01*
X-189Y1081D01*
X-189Y1080D01*
X-189Y1080D01*
X-189Y1079D01*
X-188Y1079D01*
X-188Y1078D01*
X-188Y1078D01*
X-188Y1078D01*
X-187Y1077D01*
X-187Y1077D01*
X-187Y1076D01*
X-179Y1068D01*
X-183Y1065D01*
X-212D01*
X-227Y1050D01*
Y1020D01*
X-212Y1005D01*
X-183D01*
X-168Y1020D01*
Y1050D01*
X-160Y1051D01*
X-160Y1051D01*
D01*
X-160Y1051D01*
X-160Y1051D01*
X-159Y1051D01*
X-159Y1051D01*
X-159Y1051D01*
X-158Y1051D01*
X-158Y1051D01*
X-158Y1051D01*
D01*
X-158Y1051D01*
X-158Y1051D01*
X-157Y1051D01*
X-157Y1051D01*
X-150D01*
X-148Y1049D01*
Y1020D01*
X-138Y1010D01*
Y938D01*
X-142Y934D01*
X-142Y934D01*
X-143Y933D01*
X-143Y933D01*
X-143Y933D01*
X-144Y932D01*
X-144Y932D01*
X-144Y931D01*
X-144Y931D01*
X-145Y930D01*
X-145Y930D01*
X-145Y929D01*
X-145Y929D01*
X-145Y928D01*
X-145Y928D01*
X-145Y927D01*
X-145Y927D01*
Y805D01*
X-151Y802D01*
X-161Y813D01*
X-161Y813D01*
X-161Y814D01*
X-161Y815D01*
X-161Y815D01*
X-161Y816D01*
X-162Y817D01*
X-162Y818D01*
X-162Y818D01*
X-162Y819D01*
X-162Y820D01*
X-162Y820D01*
X-163Y821D01*
X-163Y822D01*
X-163Y822D01*
X-164Y823D01*
X-164Y824D01*
X-165Y824D01*
X-165Y825D01*
X-165Y825D01*
X-166Y826D01*
X-166Y827D01*
X-167Y827D01*
X-168Y828D01*
X-168Y828D01*
X-169Y828D01*
X-169Y829D01*
X-170Y829D01*
X-171Y830D01*
X-171Y830D01*
X-172Y830D01*
X-173Y831D01*
X-173Y831D01*
X-174Y831D01*
X-175Y831D01*
X-175Y831D01*
X-176Y831D01*
X-177Y832D01*
X-178Y832D01*
X-178Y832D01*
X-179Y832D01*
X-180Y832D01*
X-180Y832D01*
X-181Y832D01*
X-181Y832D01*
X-185Y861D01*
Y907D01*
X-185Y908D01*
X-185Y908D01*
X-186Y909D01*
X-186Y910D01*
X-186Y910D01*
X-186Y911D01*
X-186Y911D01*
X-186Y912D01*
X-187Y912D01*
X-187Y913D01*
X-187Y913D01*
X-187Y914D01*
X-188Y914D01*
X-188Y915D01*
X-188Y915D01*
X-189Y916D01*
X-212Y939D01*
X-212Y945D01*
X-210Y946D01*
X-209Y946D01*
X-209Y946D01*
X-208Y946D01*
X-207Y946D01*
X-207Y946D01*
X-206Y946D01*
X-205Y947D01*
X-204Y947D01*
X-204Y947D01*
X-203Y947D01*
X-202Y947D01*
X-202Y947D01*
X-201Y948D01*
X-200Y948D01*
X-200Y948D01*
X-199Y949D01*
X-198Y949D01*
X-198Y950D01*
X-197Y950D01*
X-197Y950D01*
X-196Y951D01*
X-195Y951D01*
X-195Y952D01*
X-194Y953D01*
X-194Y953D01*
X-194Y954D01*
X-193Y954D01*
X-193Y955D01*
X-192Y956D01*
X-192Y956D01*
X-192Y957D01*
X-191Y958D01*
X-191Y958D01*
X-191Y959D01*
X-191Y960D01*
X-191Y960D01*
X-191Y961D01*
X-190Y962D01*
X-190Y963D01*
X-190Y963D01*
X-190Y964D01*
X-190Y965D01*
X-190Y965D01*
X-190Y966D01*
X-191Y967D01*
X-191Y968D01*
X-191Y968D01*
X-191Y969D01*
X-191Y970D01*
X-191Y970D01*
X-192Y971D01*
X-192Y972D01*
X-192Y972D01*
X-193Y973D01*
X-193Y974D01*
X-194Y974D01*
X-194Y975D01*
X-194Y975D01*
X-195Y976D01*
X-195Y977D01*
X-196Y977D01*
X-197Y978D01*
X-197Y978D01*
X-198Y978D01*
X-198Y979D01*
X-199Y979D01*
X-200Y980D01*
X-200Y980D01*
X-201Y980D01*
X-202Y981D01*
X-202Y981D01*
X-203Y981D01*
X-204Y981D01*
X-204Y981D01*
X-205Y981D01*
X-206Y982D01*
X-207Y982D01*
X-207Y982D01*
X-208Y982D01*
X-209Y982D01*
X-209Y982D01*
X-210Y982D01*
X-211Y981D01*
X-212Y981D01*
X-212Y981D01*
X-213Y981D01*
X-214Y981D01*
X-214Y981D01*
X-215Y980D01*
X-216Y980D01*
X-216Y980D01*
X-217Y979D01*
X-218Y979D01*
X-218Y978D01*
X-219Y978D01*
X-219Y978D01*
X-220Y977D01*
X-242D01*
X-242Y977D01*
X-243Y977D01*
X-244Y977D01*
X-244Y977D01*
X-245Y977D01*
X-245Y977D01*
X-246Y977D01*
X-246Y977D01*
X-247Y976D01*
X-247Y976D01*
X-248Y976D01*
X-248Y975D01*
X-249Y975D01*
X-249Y975D01*
X-250Y974D01*
X-250Y974D01*
X-264Y960D01*
X-264Y960D01*
X-265Y959D01*
X-265Y959D01*
X-265Y958D01*
X-266Y958D01*
X-266Y957D01*
X-266Y957D01*
X-267Y956D01*
X-267Y956D01*
X-267Y955D01*
X-267Y955D01*
X-267Y954D01*
X-267Y954D01*
X-267Y953D01*
X-267Y952D01*
X-267Y952D01*
Y932D01*
X-267Y931D01*
X-267Y931D01*
X-267Y931D01*
X-267D01*
X-267Y930D01*
X-267Y930D01*
X-267Y929D01*
X-267Y929D01*
X-267D01*
X-267Y929D01*
X-267Y928D01*
X-267Y927D01*
X-266Y927D01*
X-266Y927D01*
X-266Y927D01*
X-266Y926D01*
X-266Y926D01*
X-265Y925D01*
X-265Y925D01*
X-265Y925D01*
X-264Y924D01*
X-264Y924D01*
X-235Y895D01*
Y736D01*
X-235Y736D01*
X-235Y735D01*
X-235Y735D01*
X-235Y734D01*
X-235Y734D01*
X-235Y733D01*
X-234Y732D01*
X-234Y732D01*
X-234Y731D01*
X-234Y731D01*
X-233Y730D01*
X-233Y730D01*
X-233Y729D01*
X-232Y729D01*
X-232Y729D01*
X-232Y728D01*
X-208Y704D01*
X-204Y694D01*
X-204Y693D01*
X-204Y693D01*
X-205Y693D01*
X-206Y693D01*
X-206Y692D01*
X-207Y692D01*
X-208Y691D01*
X-208Y691D01*
X-209Y690D01*
X-209Y690D01*
X-210Y689D01*
X-210Y689D01*
X-211Y688D01*
X-211Y688D01*
X-212Y687D01*
X-212Y687D01*
X-212Y686D01*
X-213Y685D01*
X-213Y685D01*
X-213Y684D01*
X-214Y683D01*
X-214Y683D01*
X-214Y682D01*
X-214Y681D01*
X-215Y681D01*
X-215Y680D01*
X-215Y679D01*
X-215Y678D01*
X-215Y678D01*
X-215Y677D01*
X-215Y676D01*
X-215Y676D01*
X-215Y675D01*
X-215Y674D01*
X-215Y673D01*
X-214Y673D01*
X-214Y672D01*
X-214Y671D01*
X-214Y671D01*
X-213Y670D01*
X-213Y669D01*
X-213Y669D01*
X-212Y668D01*
X-212Y667D01*
X-212Y667D01*
X-211Y666D01*
X-211Y666D01*
X-210Y665D01*
X-210Y664D01*
X-209Y664D01*
X-209Y664D01*
Y519D01*
Y462D01*
X-228Y443D01*
X-376D01*
X-376Y443D01*
X-377Y444D01*
X-378Y444D01*
X-378Y445D01*
X-379Y445D01*
X-379Y445D01*
X-380Y446D01*
X-380Y446D01*
X-381Y447D01*
X-382Y447D01*
X-382Y447D01*
X-383Y448D01*
X-384Y448D01*
X-384Y448D01*
X-385Y448D01*
X-386Y448D01*
X-387Y448D01*
X-387Y449D01*
X-388Y449D01*
X-389Y449D01*
X-390Y449D01*
X-390Y449D01*
X-391Y449D01*
X-392Y449D01*
X-392Y448D01*
X-393Y448D01*
X-394Y448D01*
X-395Y448D01*
X-395Y448D01*
X-396Y448D01*
X-397Y447D01*
X-397Y447D01*
X-398Y447D01*
X-399Y446D01*
X-399Y446D01*
X-400Y445D01*
X-400Y445D01*
X-401Y445D01*
X-402Y444D01*
X-402Y444D01*
X-403Y443D01*
X-403Y442D01*
X-404Y442D01*
X-404Y441D01*
X-404Y441D01*
X-405Y440D01*
X-405Y439D01*
X-405Y439D01*
X-406Y438D01*
X-406Y437D01*
X-406Y437D01*
X-407Y436D01*
X-407Y435D01*
X-407Y435D01*
X-407Y434D01*
X-407Y433D01*
X-407Y432D01*
X-407Y432D01*
X-407Y431D01*
X-407Y430D01*
X-407Y430D01*
X-407Y430D01*
X-453Y384D01*
X-615D01*
X-615Y384D01*
X-616Y384D01*
X-616Y384D01*
X-617Y384D01*
X-617Y384D01*
X-618Y383D01*
X-618Y383D01*
X-619Y383D01*
X-620Y383D01*
X-620Y383D01*
X-621Y382D01*
X-621Y382D01*
X-622Y382D01*
X-622Y381D01*
X-622Y381D01*
X-623Y381D01*
X-623Y380D01*
X-627Y376D01*
X-628Y376D01*
X-628Y375D01*
X-628Y375D01*
X-629Y375D01*
X-629Y374D01*
X-629Y374D01*
X-630Y373D01*
X-630Y373D01*
X-630Y372D01*
X-630Y371D01*
X-630Y371D01*
X-631Y370D01*
X-631Y370D01*
X-631Y369D01*
X-631Y369D01*
X-631Y368D01*
Y359D01*
X-631Y359D01*
X-632Y359D01*
X-632Y358D01*
X-633Y357D01*
X-633Y357D01*
X-633Y356D01*
X-634Y356D01*
X-634Y355D01*
X-635Y354D01*
X-635Y354D01*
X-635Y353D01*
X-635Y353D01*
X-636Y353D01*
X-646Y356D01*
X-690Y400D01*
Y491D01*
X-690Y492D01*
X-690Y492D01*
X-690Y492D01*
X-690Y493D01*
X-690Y494D01*
X-690Y494D01*
X-690Y495D01*
X-690Y495D01*
X-691Y496D01*
X-691Y497D01*
X-691Y497D01*
X-691Y498D01*
X-691Y498D01*
X-691Y498D01*
X-692Y498D01*
X-692Y499D01*
X-692Y499D01*
X-692Y499D01*
X-693Y500D01*
X-693Y500D01*
X-693Y500D01*
X-694Y501D01*
X-744Y551D01*
Y659D01*
X-744Y659D01*
X-744Y660D01*
X-743Y660D01*
X-743Y661D01*
X-742Y662D01*
X-742Y662D01*
X-742Y663D01*
X-741Y664D01*
X-741Y664D01*
X-741Y665D01*
X-741Y666D01*
X-741Y666D01*
X-741Y667D01*
X-740Y668D01*
X-740Y669D01*
X-740Y669D01*
X-740Y670D01*
X-740Y671D01*
X-740Y671D01*
X-740Y672D01*
X-741Y673D01*
X-741Y674D01*
X-741Y674D01*
X-741Y675D01*
X-741Y676D01*
X-741Y676D01*
X-742Y677D01*
X-742Y678D01*
X-742Y678D01*
X-743Y679D01*
X-743Y680D01*
X-744Y680D01*
X-744Y681D01*
X-744Y681D01*
X-745Y682D01*
X-745Y683D01*
X-746Y683D01*
X-747Y684D01*
X-747Y684D01*
X-748Y684D01*
X-748Y685D01*
X-749Y685D01*
X-750Y686D01*
X-750Y686D01*
X-751Y686D01*
X-752Y687D01*
X-752Y687D01*
X-753Y687D01*
X-754Y687D01*
X-754Y687D01*
X-755Y687D01*
X-756Y688D01*
X-757Y688D01*
X-757Y688D01*
X-758Y688D01*
X-759Y688D01*
X-759Y688D01*
X-760Y688D01*
X-761Y687D01*
X-762Y687D01*
X-762Y687D01*
X-763Y687D01*
X-764Y687D01*
X-764Y687D01*
X-765Y686D01*
X-766Y686D01*
X-766Y686D01*
X-767Y685D01*
X-768Y685D01*
X-768Y684D01*
X-769Y684D01*
X-769Y684D01*
X-770Y683D01*
X-771Y683D01*
X-771Y682D01*
X-772Y681D01*
X-772Y681D01*
X-772Y680D01*
X-773Y680D01*
X-773Y679D01*
X-774Y678D01*
X-774Y678D01*
X-774Y677D01*
X-775Y676D01*
X-775Y676D01*
X-775Y675D01*
X-775Y674D01*
X-775Y674D01*
X-775Y673D01*
X-776Y672D01*
X-776Y671D01*
X-776Y671D01*
X-776Y670D01*
X-776Y669D01*
X-776Y669D01*
X-776Y668D01*
X-775Y667D01*
X-775Y666D01*
X-775Y666D01*
X-775Y665D01*
X-775Y664D01*
X-775Y664D01*
X-774Y663D01*
X-774Y662D01*
X-774Y662D01*
X-773Y661D01*
X-773Y660D01*
X-772Y660D01*
X-772Y659D01*
X-772Y659D01*
Y546D01*
X-772Y545D01*
X-772Y544D01*
X-772Y544D01*
X-772Y543D01*
X-771Y542D01*
X-771Y542D01*
X-771D01*
X-771Y542D01*
X-771Y541D01*
X-771Y541D01*
X-771D01*
X-771Y541D01*
X-771Y540D01*
X-770Y539D01*
X-770Y539D01*
X-770Y538D01*
X-769Y538D01*
X-769Y537D01*
X-769Y537D01*
X-768Y536D01*
X-768Y536D01*
X-768Y536D01*
X-768Y536D01*
X-717Y485D01*
Y394D01*
X-717Y394D01*
X-717Y393D01*
X-717Y392D01*
X-717Y392D01*
X-717Y391D01*
X-717Y390D01*
X-716Y390D01*
X-716Y389D01*
X-716Y389D01*
X-716Y388D01*
X-715Y388D01*
X-715Y387D01*
X-715Y386D01*
X-714Y386D01*
X-714Y385D01*
X-714Y385D01*
X-713Y384D01*
X-639Y311D01*
Y311D01*
X-639Y311D01*
X-639Y311D01*
Y311D01*
X-639Y310D01*
X-638Y310D01*
X-638Y309D01*
X-637Y309D01*
X-637Y309D01*
X-636Y308D01*
X-636Y308D01*
X-635Y308D01*
X-635Y308D01*
X-634Y307D01*
X-634Y307D01*
X-634Y307D01*
D01*
X-634Y307D01*
X-634Y307D01*
X-633Y307D01*
X-633Y307D01*
X-633Y307D01*
X-633Y307D01*
D01*
X-633Y307D01*
X-633Y307D01*
X-632Y307D01*
X-632Y307D01*
X-632Y307D01*
X-632Y307D01*
D01*
X-632Y307D01*
X-632Y307D01*
X-631Y307D01*
X-630Y307D01*
X-630Y307D01*
X-630Y307D01*
X-268D01*
X-266Y301D01*
X-284Y283D01*
X-640D01*
X-641Y283D01*
X-641Y283D01*
X-642Y283D01*
X-642Y283D01*
X-643Y282D01*
X-643Y282D01*
X-644Y282D01*
X-644Y282D01*
X-644Y282D01*
X-645Y282D01*
X-645Y281D01*
X-646Y281D01*
X-646Y281D01*
X-646Y281D01*
X-647Y280D01*
X-647Y280D01*
X-648Y280D01*
X-778Y149D01*
X-947D01*
X-948Y149D01*
X-949Y149D01*
X-949Y149D01*
X-950Y149D01*
X-950Y149D01*
X-951Y149D01*
X-951Y149D01*
X-952Y149D01*
X-952Y148D01*
X-952Y148D01*
X-953Y148D01*
X-953Y148D01*
X-954Y147D01*
X-954Y147D01*
X-954Y147D01*
X-955Y147D01*
X-955Y146D01*
X-1008Y94D01*
X-1008Y93D01*
X-1008Y93D01*
X-1009Y92D01*
X-1009Y92D01*
X-1009Y92D01*
X-1009Y91D01*
X-1010Y91D01*
X-1010Y90D01*
X-1010Y90D01*
X-1010Y89D01*
X-1010Y89D01*
X-1011Y88D01*
X-1011Y88D01*
X-1011Y87D01*
X-1011Y87D01*
X-1011Y86D01*
Y37D01*
X-1019D01*
X-1037Y19D01*
Y-19D01*
X-1019Y-37D01*
X-981D01*
X-963Y-19D01*
Y19D01*
X-981Y37D01*
X-989D01*
Y82D01*
X-943Y128D01*
X-774D01*
X-773Y128D01*
X-772Y128D01*
X-772Y128D01*
X-771Y128D01*
X-771Y128D01*
X-771D01*
X-771Y128D01*
X-771Y128D01*
X-770Y128D01*
X-770Y128D01*
X-769Y129D01*
X-769Y129D01*
X-768Y129D01*
X-768Y129D01*
X-768Y129D01*
X-768Y129D01*
X-767Y130D01*
X-767Y130D01*
X-767Y130D01*
X-766Y130D01*
X-766Y131D01*
X-636Y261D01*
X-280D01*
X-279Y261D01*
X-279Y261D01*
X-278Y261D01*
X-278Y261D01*
X-277Y262D01*
X-277D01*
X-277Y262D01*
X-277Y262D01*
X-277Y262D01*
X-276Y262D01*
X-276Y262D01*
X-275Y262D01*
X-275Y263D01*
X-275Y263D01*
X-275Y263D01*
X-274Y263D01*
X-274Y263D01*
X-274Y263D01*
X-273Y264D01*
X-273Y264D01*
X-272Y264D01*
X-252Y284D01*
X-247Y282D01*
Y191D01*
X-252Y189D01*
X-261Y198D01*
X-291D01*
X-306Y184D01*
Y154D01*
X-291Y139D01*
X-261D01*
X-252Y149D01*
X-247Y146D01*
Y68D01*
X-278Y37D01*
X-281D01*
X-281Y37D01*
X-281Y37D01*
X-319D01*
X-337Y19D01*
Y-19D01*
X-319Y-37D01*
X-281D01*
X-263Y-19D01*
Y19D01*
X-264Y20D01*
X-228Y56D01*
X-228Y57D01*
X-228Y57D01*
X-227Y58D01*
X-227Y58D01*
X-227Y59D01*
X-226Y59D01*
X-226Y60D01*
X-226Y60D01*
X-226Y60D01*
X-226Y61D01*
X-226Y61D01*
X-225Y62D01*
X-225Y62D01*
X-225Y63D01*
X-225Y63D01*
X-225Y64D01*
Y145D01*
X-220Y147D01*
X-212Y139D01*
X-183D01*
X-172Y150D01*
X-167Y148D01*
Y48D01*
X-178Y37D01*
X-181D01*
X-181Y37D01*
X-181Y37D01*
X-219D01*
X-237Y19D01*
Y-19D01*
X-219Y-37D01*
X-181D01*
X-163Y-19D01*
Y19D01*
X-164Y20D01*
X-148Y36D01*
X-148Y37D01*
X-148Y37D01*
X-147Y38D01*
X-147Y38D01*
X-147Y38D01*
X-147Y39D01*
X-146Y39D01*
X-146Y40D01*
X-146Y40D01*
X-146Y40D01*
X-146Y40D01*
X-146Y41D01*
X-146Y41D01*
X-146Y41D01*
X-146Y41D01*
Y41D01*
X-145Y42D01*
X-145Y42D01*
X-145Y43D01*
X-145Y43D01*
X-145Y44D01*
Y143D01*
X-140Y146D01*
X-134Y139D01*
X-104D01*
X-89Y154D01*
Y184D01*
X-104Y198D01*
X-134D01*
X-140Y192D01*
X-145Y194D01*
Y341D01*
X-80Y407D01*
X-75Y404D01*
Y249D01*
X-75Y249D01*
X-74Y248D01*
X-74Y248D01*
X-74Y247D01*
X-74Y247D01*
X-74Y247D01*
X-74Y246D01*
X-74Y246D01*
X-74Y245D01*
X-74Y245D01*
X-74Y245D01*
X-74Y244D01*
X-74Y244D01*
X-74D01*
X-73Y243D01*
X-73Y243D01*
X-73Y242D01*
X-72Y241D01*
X-72Y241D01*
X-72Y240D01*
X-71Y240D01*
X-71Y240D01*
X-71Y239D01*
X-71Y239D01*
X-70Y239D01*
X-70Y238D01*
X-37Y206D01*
X-37Y205D01*
X-36Y205D01*
X-36Y204D01*
X-35Y204D01*
X-36Y203D01*
X-39Y198D01*
X-55D01*
X-70Y184D01*
Y154D01*
X-55Y139D01*
X-25D01*
X-18Y146D01*
X-13Y144D01*
Y37D01*
X-19D01*
X-37Y19D01*
Y-19D01*
X-19Y-37D01*
X19D01*
X37Y-19D01*
Y19D01*
X19Y37D01*
X13D01*
Y143D01*
X18Y145D01*
X24Y139D01*
X54D01*
X68Y154D01*
Y184D01*
X54Y198D01*
X24D01*
X21Y196D01*
X13Y194D01*
X12Y194D01*
X12Y194D01*
X12Y194D01*
X12Y195D01*
X12Y195D01*
X12Y196D01*
X11Y197D01*
X11Y197D01*
X11Y197D01*
X11Y198D01*
X10Y198D01*
X10Y199D01*
X10Y199D01*
X9Y199D01*
X9Y199D01*
X9Y200D01*
X-11Y219D01*
X-11Y219D01*
X-11Y220D01*
X-11Y221D01*
X-11Y221D01*
X-11Y222D01*
X-12Y223D01*
X-12Y223D01*
X-12Y224D01*
X-13Y225D01*
X-13Y225D01*
X-13Y226D01*
X-14Y226D01*
X-14Y227D01*
X-15Y227D01*
X-15Y228D01*
X-43Y256D01*
Y814D01*
X-38Y816D01*
X-14Y793D01*
X50D01*
X83Y826D01*
Y891D01*
X50Y923D01*
X-14D01*
X-38Y900D01*
X-43Y902D01*
Y916D01*
X-16Y942D01*
X92D01*
X93Y942D01*
X94Y943D01*
X94Y943D01*
X94Y943D01*
X95Y943D01*
X95Y943D01*
X96Y943D01*
X96Y943D01*
X97Y943D01*
X98Y943D01*
X98Y944D01*
X99Y944D01*
X100Y944D01*
X100Y945D01*
X101Y945D01*
X101Y945D01*
X102Y946D01*
X102Y946D01*
X102Y946D01*
X102Y946D01*
X103Y947D01*
X103Y947D01*
X134Y978D01*
X155D01*
X156Y978D01*
X156Y978D01*
X157Y978D01*
X157Y978D01*
X157Y978D01*
X158Y978D01*
X158Y978D01*
X159Y978D01*
X160Y979D01*
X160Y979D01*
X161Y979D01*
X162Y979D01*
X162Y980D01*
X163Y980D01*
X163Y980D01*
X164Y981D01*
X164Y981D01*
X164Y981D01*
X165Y981D01*
X165Y982D01*
X166Y982D01*
X166Y983D01*
X189Y1005D01*
X211D01*
X226Y1020D01*
Y1050D01*
X212Y1064D01*
Y1087D01*
X212Y1087D01*
X212Y1088D01*
X212Y1088D01*
X212Y1088D01*
X212Y1089D01*
X212Y1089D01*
X212Y1090D01*
X212Y1090D01*
X212Y1091D01*
X211Y1091D01*
X211Y1091D01*
X211Y1092D01*
X211Y1092D01*
X211Y1093D01*
X210Y1093D01*
X210Y1094D01*
X210Y1095D01*
X210Y1095D01*
X209Y1096D01*
X209Y1096D01*
X209Y1096D01*
X209Y1097D01*
X208Y1097D01*
X208Y1097D01*
X207Y1098D01*
X189Y1116D01*
X189Y1117D01*
X188Y1117D01*
X188Y1117D01*
X188Y1117D01*
X187Y1118D01*
X187Y1118D01*
X186Y1118D01*
X186Y1119D01*
X185Y1119D01*
X185Y1119D01*
X184Y1120D01*
X183Y1120D01*
X183Y1120D01*
X182Y1120D01*
X182Y1120D01*
X182Y1120D01*
X181Y1120D01*
X181Y1121D01*
X180Y1121D01*
X180Y1121D01*
X180Y1121D01*
X179Y1121D01*
X179Y1121D01*
X178Y1121D01*
X-117D01*
X-117Y1121D01*
X-118Y1121D01*
X-119Y1122D01*
X-119Y1122D01*
X-120Y1122D01*
X-121Y1122D01*
X-121Y1122D01*
X-122Y1122D01*
X-123Y1123D01*
X-124Y1123D01*
X-124Y1123D01*
X-125Y1123D01*
X-126Y1123D01*
X-126Y1123D01*
X-127Y1123D01*
X-128Y1122D01*
X-129Y1122D01*
X-129Y1122D01*
X-130Y1122D01*
X-131Y1122D01*
X-131Y1122D01*
X-132Y1121D01*
X-133Y1121D01*
X-133Y1121D01*
X-134Y1120D01*
X-135Y1120D01*
X-135Y1119D01*
X-136Y1119D01*
X-136Y1119D01*
X-137Y1118D01*
X-138Y1118D01*
X-138Y1117D01*
X-139Y1116D01*
X-139Y1116D01*
X-139Y1115D01*
X-140Y1115D01*
X-140Y1114D01*
X-141Y1113D01*
X-141Y1113D01*
X-141Y1112D01*
X-142Y1111D01*
X-142Y1111D01*
X-142Y1110D01*
X-142Y1109D01*
X-142Y1109D01*
X-142Y1108D01*
X-143Y1107D01*
X-143Y1106D01*
X-143Y1106D01*
X-143Y1105D01*
X-143Y1104D01*
X-143Y1104D01*
X-143Y1103D01*
X-142Y1102D01*
X-142Y1101D01*
X-142Y1101D01*
X-142Y1100D01*
X-142Y1099D01*
X-142Y1099D01*
X-141Y1098D01*
X-141Y1097D01*
X-141Y1097D01*
X-140Y1096D01*
X-140Y1095D01*
X-139Y1095D01*
X-139Y1094D01*
X-139Y1094D01*
X-138Y1093D01*
X-138Y1092D01*
X-137Y1092D01*
X-136Y1091D01*
X-136Y1091D01*
X-135Y1091D01*
X-135Y1090D01*
X-134Y1090D01*
X-133Y1089D01*
X-133Y1089D01*
X-132Y1089D01*
X-131Y1088D01*
X-131Y1088D01*
X-130Y1088D01*
X-129Y1088D01*
X-129Y1088D01*
X-128Y1088D01*
X-127Y1087D01*
X-126Y1087D01*
X-126Y1087D01*
X-125Y1087D01*
X-124Y1087D01*
X-124Y1087D01*
X-123Y1087D01*
X-122Y1088D01*
X-121Y1088D01*
X-121Y1088D01*
X-120Y1088D01*
X-119Y1088D01*
X-119Y1088D01*
X-118Y1089D01*
X-117Y1089D01*
X-117Y1089D01*
X171D01*
X180Y1080D01*
Y1064D01*
X167Y1050D01*
Y1028D01*
X149Y1010D01*
X143Y1011D01*
X142Y1015D01*
X147Y1020D01*
Y1050D01*
X132Y1065D01*
X103D01*
X88Y1050D01*
Y1021D01*
X72Y1004D01*
X60D01*
X58Y1010D01*
X68Y1020D01*
Y1050D01*
X54Y1065D01*
X24D01*
X9Y1050D01*
Y1045D01*
X9Y1045D01*
X9Y1045D01*
X8Y1044D01*
X8Y1044D01*
X8Y1044D01*
X8Y1044D01*
X7Y1044D01*
X7Y1043D01*
X6Y1043D01*
X6Y1043D01*
X6Y1043D01*
X-5Y1032D01*
X-10Y1034D01*
Y1050D01*
X-25Y1065D01*
X-55D01*
X-70Y1050D01*
Y1020D01*
X-67Y1018D01*
X-66Y1010D01*
X-66Y1009D01*
X-66Y1009D01*
X-67Y1009D01*
X-67Y1009D01*
X-68Y1009D01*
X-69Y1008D01*
X-69Y1008D01*
X-70Y1008D01*
X-70Y1008D01*
X-70Y1008D01*
X-70Y1007D01*
X-71Y1007D01*
X-71Y1007D01*
X-72Y1006D01*
X-111Y967D01*
X-117Y969D01*
Y1005D01*
X-104D01*
X-89Y1020D01*
Y1050D01*
X-104Y1065D01*
X-133D01*
X-138Y1070D01*
X-138Y1070D01*
X-139Y1070D01*
X-139Y1071D01*
X-140Y1071D01*
X-140Y1071D01*
X-140Y1071D01*
X-141Y1072D01*
X-141Y1072D01*
X-142Y1072D01*
X-142Y1072D01*
X-143Y1072D01*
X-143Y1073D01*
X-144Y1073D01*
X-145Y1073D01*
X-145Y1073D01*
X-146Y1073D01*
X-152D01*
X-168Y1088D01*
Y1117D01*
X-122Y1163D01*
X-119D01*
X-119Y1163D01*
X-119Y1163D01*
X-81D01*
X-63Y1181D01*
Y1219D01*
X-81Y1237D01*
Y1237D01*
D01*
Y1239D01*
X-77Y1243D01*
X-19D01*
Y1237D01*
X-37Y1219D01*
Y1181D01*
X-19Y1163D01*
X19D01*
X37Y1181D01*
Y1219D01*
X19Y1237D01*
Y1237D01*
D01*
Y1239D01*
X23Y1243D01*
X248D01*
Y-44D01*
D02*
G37*
%LPC*%
G36*
X-498Y198D02*
X-527D01*
X-542Y184D01*
Y154D01*
X-527Y139D01*
X-498D01*
X-483Y154D01*
Y184D01*
X-498Y198D01*
D02*
G37*
G36*
X-1281Y187D02*
X-1319D01*
X-1337Y169D01*
Y131D01*
X-1319Y113D01*
X-1281D01*
X-1263Y131D01*
Y169D01*
X-1281Y187D01*
D02*
G37*
G36*
X-484Y120D02*
X-485Y120D01*
X-485Y120D01*
X-486Y120D01*
X-487Y119D01*
X-488Y119D01*
X-488Y119D01*
X-489Y119D01*
X-490Y119D01*
X-490Y119D01*
X-491Y118D01*
X-492Y118D01*
X-492Y118D01*
X-493Y117D01*
X-494Y117D01*
X-494Y116D01*
X-495Y116D01*
X-495Y116D01*
X-496Y115D01*
X-497Y115D01*
X-497Y114D01*
X-498Y113D01*
X-498Y113D01*
X-498Y112D01*
X-499Y112D01*
X-499Y111D01*
X-500Y110D01*
X-500Y110D01*
X-500Y109D01*
X-501Y108D01*
X-501Y108D01*
X-501Y107D01*
X-501Y106D01*
X-501Y106D01*
X-501Y105D01*
X-502Y104D01*
X-502Y103D01*
X-502Y103D01*
X-502Y102D01*
X-502Y101D01*
X-502Y101D01*
X-502Y100D01*
X-501Y99D01*
X-501Y99D01*
X-569Y31D01*
X-575D01*
X-581Y37D01*
X-619D01*
X-637Y19D01*
Y-19D01*
X-619Y-37D01*
X-581D01*
X-563Y-19D01*
Y7D01*
X-485Y84D01*
X-485Y84D01*
X-484Y84D01*
X-483Y84D01*
X-483Y84D01*
X-482Y84D01*
X-481Y85D01*
X-480Y85D01*
X-480Y85D01*
X-479Y85D01*
X-478Y85D01*
X-478Y85D01*
X-477Y86D01*
X-476Y86D01*
X-476Y86D01*
X-475Y87D01*
X-474Y87D01*
X-474Y88D01*
X-473Y88D01*
X-473Y88D01*
X-472Y89D01*
X-471Y89D01*
X-471Y90D01*
X-470Y91D01*
X-470Y91D01*
X-470Y92D01*
X-469Y92D01*
X-469Y93D01*
X-468Y94D01*
X-468Y94D01*
X-468Y95D01*
X-467Y96D01*
X-467Y96D01*
X-467Y97D01*
X-467Y98D01*
X-467Y98D01*
X-467Y99D01*
X-466Y100D01*
X-466Y101D01*
X-466Y101D01*
X-466Y102D01*
X-466Y103D01*
X-466Y103D01*
X-466Y104D01*
X-467Y105D01*
X-467Y106D01*
X-467Y106D01*
X-467Y107D01*
X-467Y108D01*
X-467Y108D01*
X-468Y109D01*
X-468Y110D01*
X-468Y110D01*
X-469Y111D01*
X-469Y112D01*
X-470Y112D01*
X-470Y113D01*
X-470Y113D01*
X-471Y114D01*
X-471Y115D01*
X-472Y115D01*
X-473Y116D01*
X-473Y116D01*
X-474Y116D01*
X-474Y117D01*
X-475Y117D01*
X-476Y118D01*
X-476Y118D01*
X-477Y118D01*
X-478Y119D01*
X-478Y119D01*
X-479Y119D01*
X-480Y119D01*
X-480Y119D01*
X-481Y119D01*
X-482Y120D01*
X-483Y120D01*
X-483Y120D01*
X-484Y120D01*
D02*
G37*
G36*
X-419Y198D02*
X-448D01*
X-463Y184D01*
Y154D01*
X-448Y139D01*
X-419D01*
X-404Y154D01*
Y184D01*
X-419Y198D01*
D02*
G37*
G36*
X211D02*
X181D01*
X167Y184D01*
Y154D01*
X181Y139D01*
X211D01*
X226Y154D01*
Y184D01*
X211Y198D01*
D02*
G37*
G36*
X132D02*
X103D01*
X88Y184D01*
Y154D01*
X103Y139D01*
X132D01*
X147Y154D01*
Y184D01*
X132Y198D01*
D02*
G37*
G36*
X-340D02*
X-370D01*
X-384Y184D01*
Y154D01*
X-370Y139D01*
X-340D01*
X-325Y154D01*
Y184D01*
X-340Y198D01*
D02*
G37*
G36*
X-781Y37D02*
X-819D01*
X-837Y19D01*
Y-19D01*
X-819Y-37D01*
X-781D01*
X-763Y-19D01*
Y19D01*
X-781Y37D01*
D02*
G37*
G36*
X-881D02*
X-919D01*
X-937Y19D01*
Y-19D01*
X-919Y-37D01*
X-881D01*
X-863Y-19D01*
Y19D01*
X-881Y37D01*
D02*
G37*
G36*
X-1081D02*
X-1119D01*
X-1137Y19D01*
Y-19D01*
X-1119Y-37D01*
X-1081D01*
X-1063Y-19D01*
Y19D01*
X-1081Y37D01*
D02*
G37*
G36*
X-681D02*
X-719D01*
X-737Y19D01*
Y-19D01*
X-719Y-37D01*
X-681D01*
X-663Y-19D01*
Y19D01*
X-681Y37D01*
D02*
G37*
G36*
X-346Y104D02*
X-347Y104D01*
X-347Y104D01*
X-348Y104D01*
X-349Y103D01*
X-350Y103D01*
X-350Y103D01*
X-351Y103D01*
X-352Y103D01*
X-352Y103D01*
X-353Y102D01*
X-354Y102D01*
X-354Y102D01*
X-355Y101D01*
X-356Y101D01*
X-356Y100D01*
X-357Y100D01*
X-357Y100D01*
X-358Y99D01*
X-359Y99D01*
X-359Y98D01*
X-360Y97D01*
X-360Y97D01*
X-360Y96D01*
X-361Y96D01*
X-361Y95D01*
X-362Y94D01*
X-362Y94D01*
X-362Y93D01*
X-363Y92D01*
X-363Y92D01*
X-363Y91D01*
X-363Y90D01*
X-363Y90D01*
X-363Y89D01*
X-364Y88D01*
X-364Y87D01*
X-364Y87D01*
X-364Y86D01*
X-364Y85D01*
X-364Y85D01*
X-364Y84D01*
X-363Y83D01*
X-363Y82D01*
X-363Y82D01*
X-363Y81D01*
X-363Y80D01*
X-363Y80D01*
X-362Y79D01*
X-362Y78D01*
X-362Y78D01*
X-361Y77D01*
X-361Y76D01*
X-360Y76D01*
X-360Y75D01*
X-360Y75D01*
X-359Y74D01*
X-359Y73D01*
X-358Y73D01*
X-357Y72D01*
X-357Y72D01*
X-357Y72D01*
Y58D01*
X-378Y37D01*
X-381D01*
X-381Y37D01*
X-381Y37D01*
X-419D01*
X-437Y19D01*
Y-19D01*
X-419Y-37D01*
X-381D01*
X-363Y-19D01*
Y19D01*
X-364Y20D01*
X-338Y46D01*
X-338Y47D01*
X-338Y47D01*
X-338Y47D01*
X-337Y48D01*
X-337Y48D01*
X-337Y48D01*
X-337Y49D01*
X-337Y49D01*
X-336Y49D01*
X-336Y50D01*
X-336Y50D01*
X-336Y51D01*
X-336Y51D01*
X-335Y52D01*
X-335Y52D01*
X-335Y53D01*
X-335Y53D01*
X-335Y54D01*
Y72D01*
X-335Y72D01*
X-335Y72D01*
X-334Y73D01*
X-333Y73D01*
X-333Y74D01*
X-332Y75D01*
X-332Y75D01*
X-332Y76D01*
X-331Y76D01*
X-331Y77D01*
X-330Y78D01*
X-330Y78D01*
X-330Y79D01*
X-329Y80D01*
X-329Y80D01*
X-329Y81D01*
X-329Y82D01*
X-329Y82D01*
X-329Y83D01*
X-328Y84D01*
X-328Y85D01*
X-328Y85D01*
X-328Y86D01*
X-328Y87D01*
X-328Y87D01*
X-328Y88D01*
X-329Y89D01*
X-329Y90D01*
X-329Y90D01*
X-329Y91D01*
X-329Y92D01*
X-329Y92D01*
X-330Y93D01*
X-330Y94D01*
X-330Y94D01*
X-331Y95D01*
X-331Y96D01*
X-332Y96D01*
X-332Y97D01*
X-332Y97D01*
X-333Y98D01*
X-333Y99D01*
X-334Y99D01*
X-335Y100D01*
X-335Y100D01*
X-336Y100D01*
X-336Y101D01*
X-337Y101D01*
X-338Y102D01*
X-338Y102D01*
X-339Y102D01*
X-340Y103D01*
X-340Y103D01*
X-341Y103D01*
X-342Y103D01*
X-342Y103D01*
X-343Y103D01*
X-344Y104D01*
X-345Y104D01*
X-345Y104D01*
X-346Y104D01*
D02*
G37*
G36*
X-1281Y87D02*
X-1319D01*
X-1337Y69D01*
Y31D01*
X-1319Y13D01*
X-1281D01*
X-1263Y31D01*
Y69D01*
X-1281Y87D01*
D02*
G37*
G36*
X-481Y37D02*
X-519D01*
X-537Y19D01*
Y-19D01*
X-519Y-37D01*
X-481D01*
X-463Y-19D01*
Y19D01*
X-481Y37D01*
D02*
G37*
G36*
X-1281Y287D02*
X-1319D01*
X-1337Y269D01*
Y231D01*
X-1319Y213D01*
X-1281D01*
X-1263Y231D01*
Y269D01*
X-1281Y287D01*
D02*
G37*
G36*
X-410Y991D02*
X-411Y991D01*
X-412Y991D01*
X-412Y991D01*
X-413Y991D01*
X-414Y991D01*
X-414Y991D01*
X-415Y991D01*
X-416Y990D01*
X-417Y990D01*
X-417Y990D01*
X-418Y990D01*
X-418Y989D01*
X-419Y989D01*
X-420Y988D01*
X-420Y988D01*
X-421Y988D01*
X-422Y987D01*
X-422Y987D01*
X-423Y986D01*
X-423Y986D01*
X-423Y985D01*
X-542D01*
X-543Y985D01*
X-543Y985D01*
X-544Y985D01*
X-544Y985D01*
X-545Y985D01*
X-545Y985D01*
X-546Y985D01*
X-546Y985D01*
X-546Y985D01*
X-547Y985D01*
X-547Y984D01*
X-548Y984D01*
X-548Y984D01*
X-549Y983D01*
X-549Y983D01*
X-550Y983D01*
X-550Y982D01*
X-551Y982D01*
X-565Y968D01*
X-565Y968D01*
X-566Y968D01*
X-567Y968D01*
X-567Y968D01*
X-568Y968D01*
X-569Y967D01*
X-570Y967D01*
X-570Y967D01*
X-571Y967D01*
X-572Y967D01*
X-572Y967D01*
X-573Y966D01*
X-574Y966D01*
X-574Y966D01*
X-575Y965D01*
X-576Y965D01*
X-576Y964D01*
X-577Y964D01*
X-577Y964D01*
X-578Y963D01*
X-579Y963D01*
X-579Y962D01*
X-580Y961D01*
X-580Y961D01*
X-580Y960D01*
X-581Y960D01*
X-581Y959D01*
X-582Y958D01*
X-582Y958D01*
X-582Y957D01*
X-583Y956D01*
X-583Y956D01*
X-583Y955D01*
X-583Y954D01*
X-583Y954D01*
X-583Y953D01*
X-584Y952D01*
X-584Y951D01*
X-584Y951D01*
X-584Y950D01*
X-584Y949D01*
X-584Y949D01*
X-584Y948D01*
X-583Y947D01*
X-583Y946D01*
X-583Y946D01*
X-583Y945D01*
X-583Y944D01*
X-583Y944D01*
X-582Y943D01*
X-582Y942D01*
X-582Y942D01*
X-581Y941D01*
X-581Y940D01*
X-580Y940D01*
X-580Y939D01*
X-580Y939D01*
X-579Y938D01*
X-579Y937D01*
X-578Y937D01*
X-577Y936D01*
X-577Y936D01*
X-576Y936D01*
X-576Y935D01*
X-575Y935D01*
X-574Y934D01*
X-574Y934D01*
X-573Y934D01*
X-572Y933D01*
X-572Y933D01*
X-571Y933D01*
X-570Y933D01*
X-570Y933D01*
X-569Y933D01*
X-568Y932D01*
X-567Y932D01*
X-567Y932D01*
X-566Y932D01*
X-565Y932D01*
X-565Y932D01*
X-564Y932D01*
X-563Y933D01*
X-562Y933D01*
X-562Y933D01*
X-561Y933D01*
X-560Y933D01*
X-560Y933D01*
X-559Y934D01*
X-558Y934D01*
X-558Y934D01*
X-557Y935D01*
X-556Y935D01*
X-556Y936D01*
X-555Y936D01*
X-555Y936D01*
X-554Y937D01*
X-553Y937D01*
X-553Y938D01*
X-552Y939D01*
X-552Y939D01*
X-552Y940D01*
X-551Y940D01*
X-551Y941D01*
X-550Y942D01*
X-550Y942D01*
X-550Y943D01*
X-549Y944D01*
X-549Y944D01*
X-549Y945D01*
X-549Y946D01*
X-549Y946D01*
X-549Y947D01*
X-548Y948D01*
X-548Y949D01*
X-548Y949D01*
X-548Y950D01*
X-548Y951D01*
X-548Y951D01*
X-537Y962D01*
X-423D01*
X-423Y962D01*
X-423Y961D01*
X-422Y961D01*
X-422Y960D01*
X-421Y960D01*
X-420Y959D01*
X-420Y959D01*
X-419Y958D01*
X-418Y958D01*
X-418Y958D01*
X-417Y957D01*
X-417Y957D01*
X-416Y957D01*
X-415Y957D01*
X-414Y956D01*
X-414Y956D01*
X-413Y956D01*
X-412Y956D01*
X-412Y956D01*
X-411Y956D01*
X-410Y956D01*
X-409Y956D01*
X-409Y956D01*
X-408Y956D01*
X-407Y956D01*
X-406Y956D01*
X-406Y956D01*
X-405Y957D01*
X-404Y957D01*
X-404Y957D01*
X-403Y957D01*
X-402Y958D01*
X-402Y958D01*
X-401Y958D01*
X-400Y959D01*
X-400Y959D01*
X-399Y960D01*
X-399Y960D01*
X-398Y961D01*
X-398Y961D01*
X-397Y962D01*
X-397Y962D01*
X-396Y963D01*
X-396Y963D01*
X-395Y964D01*
X-395Y965D01*
X-394Y965D01*
X-394Y966D01*
X-394Y967D01*
X-394Y967D01*
X-393Y968D01*
X-393Y969D01*
X-393Y969D01*
X-393Y970D01*
X-393Y971D01*
X-392Y971D01*
X-392Y972D01*
X-392Y973D01*
X-392Y974D01*
X-392Y974D01*
X-392Y975D01*
X-392Y976D01*
X-393Y977D01*
X-393Y977D01*
X-393Y978D01*
X-393Y979D01*
X-393Y979D01*
X-394Y980D01*
X-394Y981D01*
X-394Y981D01*
X-394Y982D01*
X-395Y983D01*
X-395Y983D01*
X-396Y984D01*
X-396Y985D01*
X-397Y985D01*
X-397Y986D01*
X-398Y986D01*
X-398Y987D01*
X-399Y987D01*
X-399Y988D01*
X-400Y988D01*
X-400Y988D01*
X-401Y989D01*
X-402Y989D01*
X-402Y990D01*
X-403Y990D01*
X-404Y990D01*
X-404Y990D01*
X-405Y991D01*
X-406Y991D01*
X-406Y991D01*
X-407Y991D01*
X-408Y991D01*
X-409Y991D01*
X-409Y991D01*
X-410Y991D01*
D02*
G37*
G36*
X-1281Y987D02*
X-1319D01*
X-1337Y969D01*
Y931D01*
X-1319Y913D01*
X-1281D01*
X-1263Y931D01*
Y969D01*
X-1281Y987D01*
D02*
G37*
G36*
X-1137Y1137D02*
X-1138Y1137D01*
X-1138Y1137D01*
X-1139Y1137D01*
X-1140Y1136D01*
X-1141Y1136D01*
X-1141Y1136D01*
X-1142Y1136D01*
X-1143Y1136D01*
X-1143Y1136D01*
X-1144Y1135D01*
X-1145Y1135D01*
X-1145Y1135D01*
X-1146Y1134D01*
X-1147Y1134D01*
X-1147Y1133D01*
X-1148Y1133D01*
X-1148Y1133D01*
X-1149Y1132D01*
X-1150Y1132D01*
X-1150Y1131D01*
X-1151Y1130D01*
X-1151Y1130D01*
X-1151Y1129D01*
X-1152Y1129D01*
X-1152Y1128D01*
X-1153Y1127D01*
X-1153Y1127D01*
X-1153Y1126D01*
X-1154Y1125D01*
X-1154Y1125D01*
X-1154Y1124D01*
X-1154Y1123D01*
X-1154Y1123D01*
X-1154Y1122D01*
X-1155Y1121D01*
X-1155Y1120D01*
X-1155Y1120D01*
X-1155Y1119D01*
X-1155Y1118D01*
X-1155Y1118D01*
X-1155Y1117D01*
X-1154Y1116D01*
X-1154Y1115D01*
X-1154Y1115D01*
X-1154Y1114D01*
X-1154Y1113D01*
X-1154Y1113D01*
X-1153Y1112D01*
X-1153Y1111D01*
X-1153Y1111D01*
X-1152Y1110D01*
X-1152Y1109D01*
X-1151Y1109D01*
X-1151Y1108D01*
X-1151Y1108D01*
X-1150Y1107D01*
X-1150Y1106D01*
X-1149Y1106D01*
X-1148Y1105D01*
X-1148Y1105D01*
X-1147Y1105D01*
X-1147Y1104D01*
X-1146Y1104D01*
X-1145Y1103D01*
X-1145Y1103D01*
X-1144Y1103D01*
X-1143Y1102D01*
X-1143Y1102D01*
X-1142Y1102D01*
X-1141Y1102D01*
X-1141Y1102D01*
X-1140Y1102D01*
X-1139Y1101D01*
X-1138Y1101D01*
X-1138Y1101D01*
X-1137Y1101D01*
X-1136Y1101D01*
X-1136Y1101D01*
X-1135Y1101D01*
X-1134Y1102D01*
X-1133Y1102D01*
X-1133Y1102D01*
X-1132Y1102D01*
X-1131Y1102D01*
X-1131Y1102D01*
X-1130Y1103D01*
X-1129Y1103D01*
X-1129Y1103D01*
X-1128Y1104D01*
X-1127Y1104D01*
X-1127Y1105D01*
X-1126Y1105D01*
X-1126Y1105D01*
X-1125Y1106D01*
X-1124Y1106D01*
X-1124Y1107D01*
X-1124Y1107D01*
X-816D01*
X-770Y1061D01*
X-769Y1055D01*
X-770Y1054D01*
X-770Y1053D01*
X-771Y1053D01*
X-771Y1053D01*
X-772Y1053D01*
X-773Y1053D01*
X-773Y1053D01*
X-774Y1052D01*
X-775Y1052D01*
X-775Y1052D01*
X-776Y1051D01*
X-777Y1051D01*
X-777Y1050D01*
X-778Y1050D01*
X-778Y1050D01*
X-779Y1049D01*
X-780Y1049D01*
X-780Y1048D01*
X-781Y1047D01*
X-781Y1047D01*
X-781Y1046D01*
X-782Y1046D01*
X-782Y1045D01*
X-783Y1044D01*
X-783Y1044D01*
X-783Y1043D01*
X-784Y1042D01*
X-784Y1042D01*
X-784Y1041D01*
X-784Y1040D01*
X-784Y1040D01*
X-784Y1039D01*
X-785Y1038D01*
X-785Y1037D01*
X-785Y1037D01*
X-785Y1036D01*
X-785Y1035D01*
X-785Y1035D01*
X-785Y1034D01*
X-784Y1033D01*
X-784Y1032D01*
X-784Y1032D01*
X-784Y1031D01*
X-784Y1030D01*
X-784Y1030D01*
X-783Y1029D01*
X-783Y1028D01*
X-783Y1028D01*
Y800D01*
X-783Y800D01*
X-783Y800D01*
X-784Y799D01*
X-785Y799D01*
X-785Y799D01*
X-786Y798D01*
X-787Y798D01*
X-787Y798D01*
X-788Y797D01*
X-788Y797D01*
X-789Y796D01*
X-790Y796D01*
X-790Y795D01*
X-791Y795D01*
X-791Y794D01*
X-791Y793D01*
X-792Y793D01*
X-792Y792D01*
X-793Y792D01*
X-793Y791D01*
X-793Y790D01*
X-794Y790D01*
X-794Y789D01*
X-794Y788D01*
X-794Y787D01*
X-794Y787D01*
X-794Y786D01*
X-795Y785D01*
X-795Y785D01*
X-795Y784D01*
X-795Y783D01*
X-795Y782D01*
X-795Y782D01*
X-795Y781D01*
X-794Y780D01*
X-794Y779D01*
X-794Y779D01*
X-794Y778D01*
X-794Y777D01*
X-794Y777D01*
X-793Y776D01*
X-793Y775D01*
X-793Y775D01*
Y770D01*
X-817Y745D01*
X-818Y745D01*
X-818Y745D01*
X-819Y744D01*
X-820Y744D01*
X-820Y744D01*
X-821Y743D01*
X-822Y743D01*
X-822Y742D01*
X-823Y742D01*
X-823Y742D01*
X-824Y741D01*
X-825Y741D01*
X-825Y740D01*
X-826Y739D01*
X-826Y739D01*
X-826Y738D01*
X-827Y738D01*
X-827Y737D01*
X-828Y736D01*
X-828Y736D01*
X-828Y735D01*
X-829Y734D01*
X-829Y734D01*
X-829Y733D01*
X-829Y732D01*
X-829Y732D01*
X-829Y731D01*
X-830Y730D01*
X-830Y729D01*
X-830Y729D01*
X-830Y728D01*
X-830Y727D01*
X-830Y727D01*
X-830Y726D01*
X-829Y725D01*
X-829Y724D01*
X-829Y724D01*
X-829Y723D01*
X-829Y722D01*
X-829Y722D01*
X-828Y721D01*
X-828Y720D01*
X-828Y720D01*
X-827Y719D01*
X-827Y718D01*
X-826Y718D01*
X-826Y717D01*
X-826Y717D01*
X-825Y716D01*
X-825Y715D01*
X-824Y715D01*
X-823Y714D01*
X-823Y714D01*
X-822Y714D01*
X-822Y713D01*
X-821Y713D01*
X-820Y712D01*
X-820Y712D01*
X-819Y712D01*
X-818Y711D01*
X-818Y711D01*
X-817Y711D01*
X-816Y711D01*
X-816Y711D01*
X-815Y711D01*
X-814Y710D01*
X-813Y710D01*
X-813Y710D01*
X-812Y710D01*
X-811Y710D01*
X-811Y710D01*
X-810Y710D01*
X-809Y711D01*
X-808Y711D01*
X-808Y711D01*
X-807Y711D01*
X-806Y711D01*
X-806Y711D01*
X-805Y712D01*
X-804Y712D01*
X-804Y712D01*
X-803Y713D01*
X-802Y713D01*
X-802Y714D01*
X-801Y714D01*
X-801Y714D01*
X-800Y715D01*
X-799Y715D01*
X-799Y716D01*
X-798Y717D01*
X-798Y717D01*
X-798Y718D01*
X-797Y718D01*
X-797Y719D01*
X-796Y720D01*
X-796Y720D01*
X-796Y721D01*
X-795Y722D01*
X-795Y722D01*
X-795Y723D01*
X-766Y752D01*
X-765Y752D01*
X-765Y753D01*
X-765Y753D01*
X-765Y753D01*
X-764Y754D01*
X-764Y754D01*
X-764Y755D01*
X-763Y755D01*
X-763Y756D01*
X-763Y756D01*
X-762Y757D01*
X-762Y758D01*
X-762Y758D01*
X-762Y758D01*
Y758D01*
X-762Y758D01*
X-762Y759D01*
X-762Y760D01*
X-761Y760D01*
X-761Y760D01*
X-761Y761D01*
X-761Y762D01*
X-761Y762D01*
X-761Y762D01*
X-761Y762D01*
X-761Y763D01*
X-761Y763D01*
X-761Y763D01*
Y763D01*
Y775D01*
X-761Y775D01*
X-761Y776D01*
X-760Y777D01*
X-760Y777D01*
X-760Y778D01*
X-756Y782D01*
X-755Y782D01*
X-755Y783D01*
X-755Y784D01*
X-754Y784D01*
X-754Y785D01*
X-753Y785D01*
X-753Y785D01*
X-753Y786D01*
X-753Y786D01*
X-752Y787D01*
X-752Y788D01*
X-752Y788D01*
X-752Y789D01*
X-752Y790D01*
X-751Y790D01*
X-751Y791D01*
X-751Y791D01*
X-751Y791D01*
X-751Y792D01*
X-751Y792D01*
X-751Y793D01*
Y1028D01*
X-751Y1028D01*
X-751Y1029D01*
X-750Y1030D01*
X-750Y1030D01*
X-750Y1031D01*
X-750Y1032D01*
X-750Y1032D01*
X-750Y1033D01*
X-749Y1033D01*
X-748Y1034D01*
X-742Y1033D01*
X-562Y854D01*
X-562Y853D01*
X-561Y853D01*
X-561Y853D01*
X-560Y852D01*
X-560Y852D01*
X-560Y852D01*
X-559Y851D01*
D01*
X-559Y851D01*
X-559Y851D01*
D01*
X-558Y851D01*
X-558Y851D01*
X-557Y851D01*
X-557Y851D01*
X-556Y850D01*
X-556Y850D01*
X-555Y850D01*
X-555Y850D01*
X-554Y850D01*
X-330D01*
X-330Y850D01*
X-330Y849D01*
X-329Y849D01*
X-328Y848D01*
X-328Y848D01*
X-327Y848D01*
X-327Y847D01*
X-326Y847D01*
X-325Y846D01*
X-325Y846D01*
X-324Y846D01*
X-323Y845D01*
X-323Y845D01*
X-322Y845D01*
X-321Y845D01*
X-321Y845D01*
X-320Y845D01*
X-319Y844D01*
X-318Y844D01*
X-318Y844D01*
X-317Y844D01*
X-316Y844D01*
X-316Y844D01*
X-315Y844D01*
X-314Y845D01*
X-313Y845D01*
X-313Y845D01*
X-312Y845D01*
X-311Y845D01*
X-311Y845D01*
X-310Y846D01*
X-309Y846D01*
X-309Y846D01*
X-308Y847D01*
X-307Y847D01*
X-307Y848D01*
X-306Y848D01*
X-306Y848D01*
X-305Y849D01*
X-304Y849D01*
X-304Y850D01*
X-303Y851D01*
X-303Y851D01*
X-303Y852D01*
X-302Y852D01*
X-302Y853D01*
X-301Y854D01*
X-301Y854D01*
X-301Y855D01*
X-300Y856D01*
X-300Y856D01*
X-300Y857D01*
X-300Y858D01*
X-300Y858D01*
X-300Y859D01*
X-299Y860D01*
X-299Y861D01*
X-299Y861D01*
X-299Y862D01*
X-299Y863D01*
X-299Y863D01*
X-299Y864D01*
X-300Y865D01*
X-300Y866D01*
X-300Y866D01*
X-300Y867D01*
X-300Y868D01*
X-300Y868D01*
X-301Y869D01*
X-301Y870D01*
X-301Y870D01*
X-302Y871D01*
X-302Y872D01*
X-303Y872D01*
X-303Y873D01*
X-303Y873D01*
X-304Y874D01*
X-304Y875D01*
X-305Y875D01*
X-306Y876D01*
X-306Y876D01*
X-307Y876D01*
X-307Y877D01*
X-308Y877D01*
X-309Y878D01*
X-309Y878D01*
X-310Y878D01*
X-311Y879D01*
X-311Y879D01*
X-312Y879D01*
X-313Y879D01*
X-313Y879D01*
X-314Y879D01*
X-315Y880D01*
X-316Y880D01*
X-316Y880D01*
X-317Y880D01*
X-318Y880D01*
X-318Y880D01*
X-319Y880D01*
X-320Y879D01*
X-321Y879D01*
X-321Y879D01*
X-322Y879D01*
X-323Y879D01*
X-323Y879D01*
X-324Y878D01*
X-325Y878D01*
X-325Y878D01*
X-326Y877D01*
X-327Y877D01*
X-327Y876D01*
X-328Y876D01*
X-328Y876D01*
X-329Y875D01*
X-330Y875D01*
X-330Y874D01*
X-330Y874D01*
X-549D01*
X-574Y899D01*
D01*
X-803Y1127D01*
X-803Y1128D01*
X-803Y1128D01*
X-804Y1128D01*
X-804Y1129D01*
X-805Y1129D01*
X-805Y1129D01*
X-806Y1130D01*
X-806Y1130D01*
X-807Y1130D01*
X-808Y1130D01*
X-808Y1130D01*
X-809Y1131D01*
X-809Y1131D01*
X-810Y1131D01*
X-810Y1131D01*
X-811Y1131D01*
X-1124D01*
X-1124Y1131D01*
X-1124Y1132D01*
X-1125Y1132D01*
X-1126Y1133D01*
X-1126Y1133D01*
X-1127Y1133D01*
X-1127Y1134D01*
X-1128Y1134D01*
X-1129Y1135D01*
X-1129Y1135D01*
X-1130Y1135D01*
X-1131Y1136D01*
X-1131Y1136D01*
X-1132Y1136D01*
X-1133Y1136D01*
X-1133Y1136D01*
X-1134Y1136D01*
X-1135Y1137D01*
X-1136Y1137D01*
X-1136Y1137D01*
X-1137Y1137D01*
D02*
G37*
G36*
X-419Y1065D02*
X-448D01*
X-463Y1050D01*
Y1020D01*
X-448Y1005D01*
X-419D01*
X-404Y1020D01*
Y1050D01*
X-419Y1065D01*
D02*
G37*
G36*
X-1281Y1187D02*
X-1319D01*
X-1337Y1169D01*
Y1131D01*
X-1319Y1113D01*
X-1281D01*
X-1263Y1131D01*
Y1169D01*
X-1281Y1187D01*
D02*
G37*
G36*
X-261Y1065D02*
X-291D01*
X-306Y1050D01*
Y1020D01*
X-291Y1005D01*
X-261D01*
X-247Y1020D01*
Y1050D01*
X-261Y1065D01*
D02*
G37*
G36*
X-340D02*
X-370D01*
X-384Y1050D01*
Y1020D01*
X-370Y1005D01*
X-340D01*
X-325Y1020D01*
Y1050D01*
X-340Y1065D01*
D02*
G37*
G36*
X-928Y652D02*
X-929Y652D01*
X-929Y652D01*
X-930Y652D01*
X-931Y651D01*
X-932Y651D01*
X-932Y651D01*
X-933Y651D01*
X-934Y651D01*
X-934Y651D01*
X-935Y650D01*
X-936Y650D01*
X-936Y650D01*
X-937Y649D01*
X-938Y649D01*
X-938Y648D01*
X-939Y648D01*
X-939Y648D01*
X-940Y647D01*
X-941Y647D01*
X-941Y646D01*
X-942Y645D01*
X-942Y645D01*
X-942Y644D01*
X-943Y644D01*
X-943Y643D01*
X-944Y642D01*
X-944Y642D01*
X-944Y641D01*
X-945Y640D01*
X-945Y640D01*
X-945Y639D01*
X-945Y638D01*
X-945Y638D01*
X-945Y637D01*
X-946Y636D01*
X-946Y635D01*
X-946Y635D01*
X-946Y634D01*
X-946Y633D01*
X-946Y633D01*
X-946Y632D01*
X-945Y631D01*
X-945Y630D01*
X-945Y630D01*
X-945Y629D01*
X-945Y628D01*
X-945Y628D01*
X-944Y627D01*
X-944Y626D01*
X-944Y626D01*
X-943Y625D01*
X-943Y624D01*
X-942Y624D01*
X-942Y623D01*
X-942Y623D01*
X-941Y622D01*
X-941Y621D01*
X-940Y621D01*
X-939Y620D01*
X-939Y620D01*
X-939Y620D01*
Y577D01*
X-939Y576D01*
X-939Y576D01*
X-939Y575D01*
X-939Y575D01*
X-938Y574D01*
X-938Y574D01*
X-938D01*
X-938Y574D01*
X-938Y573D01*
X-938Y573D01*
X-938Y573D01*
X-938Y573D01*
X-938Y572D01*
X-937Y572D01*
X-937Y571D01*
X-937Y571D01*
X-937Y571D01*
X-936Y570D01*
X-936Y570D01*
X-936Y569D01*
X-830Y463D01*
X-829Y463D01*
X-829Y463D01*
X-829Y463D01*
X-828Y462D01*
X-828Y462D01*
X-828Y462D01*
X-827Y462D01*
X-827Y462D01*
X-827Y461D01*
X-826Y461D01*
X-826Y461D01*
X-825Y461D01*
X-825Y461D01*
X-824Y460D01*
X-824Y460D01*
X-823Y460D01*
X-823Y460D01*
X-822Y460D01*
X-765D01*
X-765Y460D01*
X-765Y460D01*
X-764Y459D01*
X-764Y458D01*
X-763Y458D01*
X-762Y457D01*
X-762Y457D01*
X-761Y457D01*
X-761Y456D01*
X-760Y456D01*
X-759Y455D01*
X-759Y455D01*
X-758Y455D01*
X-757Y454D01*
X-757Y454D01*
X-756Y454D01*
X-755Y454D01*
X-755Y454D01*
X-754Y454D01*
X-753Y453D01*
X-752Y453D01*
X-752Y453D01*
X-751Y453D01*
X-750Y453D01*
X-750Y453D01*
X-749Y453D01*
X-748Y454D01*
X-747Y454D01*
X-747Y454D01*
X-746Y454D01*
X-745Y454D01*
X-745Y454D01*
X-744Y455D01*
X-743Y455D01*
X-743Y455D01*
X-742Y456D01*
X-741Y456D01*
X-741Y457D01*
X-740Y457D01*
X-740Y457D01*
X-739Y458D01*
X-738Y458D01*
X-738Y459D01*
X-737Y460D01*
X-737Y460D01*
X-737Y461D01*
X-736Y461D01*
X-736Y462D01*
X-735Y463D01*
X-735Y463D01*
X-735Y464D01*
X-734Y465D01*
X-734Y465D01*
X-734Y466D01*
X-734Y467D01*
X-734Y467D01*
X-734Y468D01*
X-733Y469D01*
X-733Y470D01*
X-733Y470D01*
X-733Y471D01*
X-733Y472D01*
X-733Y472D01*
X-733Y473D01*
X-734Y474D01*
X-734Y475D01*
X-734Y475D01*
X-734Y476D01*
X-734Y477D01*
X-734Y477D01*
X-735Y478D01*
X-735Y479D01*
X-735Y479D01*
X-736Y480D01*
X-736Y481D01*
X-737Y481D01*
X-737Y482D01*
X-737Y482D01*
X-738Y483D01*
X-738Y484D01*
X-739Y484D01*
X-740Y485D01*
X-740Y485D01*
X-741Y485D01*
X-741Y486D01*
X-742Y486D01*
X-743Y487D01*
X-743Y487D01*
X-744Y487D01*
X-745Y488D01*
X-745Y488D01*
X-746Y488D01*
X-747Y488D01*
X-747Y488D01*
X-748Y488D01*
X-749Y489D01*
X-750Y489D01*
X-750Y489D01*
X-751Y489D01*
X-752Y489D01*
X-752Y489D01*
X-753Y489D01*
X-754Y488D01*
X-755Y488D01*
X-755Y488D01*
X-756Y488D01*
X-757Y488D01*
X-757Y488D01*
X-758Y487D01*
X-759Y487D01*
X-759Y487D01*
X-760Y486D01*
X-761Y486D01*
X-761Y485D01*
X-762Y485D01*
X-762Y485D01*
X-763Y484D01*
X-764Y484D01*
X-764Y483D01*
X-765Y482D01*
X-765Y482D01*
X-765Y482D01*
X-818D01*
X-917Y581D01*
Y620D01*
X-917Y620D01*
X-917Y620D01*
X-916Y621D01*
X-915Y621D01*
X-915Y622D01*
X-914Y623D01*
X-914Y623D01*
X-914Y624D01*
X-913Y624D01*
X-913Y625D01*
X-912Y626D01*
X-912Y626D01*
X-912Y627D01*
X-911Y628D01*
X-911Y628D01*
X-911Y629D01*
X-911Y630D01*
X-911Y630D01*
X-911Y631D01*
X-910Y632D01*
X-910Y633D01*
X-910Y633D01*
X-910Y634D01*
X-910Y635D01*
X-910Y635D01*
X-910Y636D01*
X-911Y637D01*
X-911Y638D01*
X-911Y638D01*
X-911Y639D01*
X-911Y640D01*
X-911Y640D01*
X-912Y641D01*
X-912Y642D01*
X-912Y642D01*
X-913Y643D01*
X-913Y644D01*
X-914Y644D01*
X-914Y645D01*
X-914Y645D01*
X-915Y646D01*
X-915Y647D01*
X-916Y647D01*
X-917Y648D01*
X-917Y648D01*
X-918Y648D01*
X-918Y649D01*
X-919Y649D01*
X-920Y650D01*
X-920Y650D01*
X-921Y650D01*
X-922Y651D01*
X-922Y651D01*
X-923Y651D01*
X-924Y651D01*
X-924Y651D01*
X-925Y651D01*
X-926Y652D01*
X-927Y652D01*
X-927Y652D01*
X-928Y652D01*
D02*
G37*
G36*
X-1281Y387D02*
X-1319D01*
X-1337Y369D01*
Y331D01*
X-1319Y313D01*
X-1281D01*
X-1263Y331D01*
Y369D01*
X-1281Y387D01*
D02*
G37*
G36*
X-850Y320D02*
X-870D01*
X-871Y320D01*
X-872Y320D01*
X-873Y320D01*
X-874Y320D01*
X-875Y319D01*
X-876Y319D01*
X-877Y319D01*
X-878Y319D01*
X-879Y319D01*
X-880Y318D01*
X-881Y318D01*
X-882Y318D01*
X-883Y317D01*
X-884Y317D01*
X-885Y316D01*
X-886Y316D01*
X-887Y316D01*
X-888Y315D01*
X-888Y315D01*
X-889Y314D01*
X-890Y313D01*
X-891Y313D01*
X-892Y312D01*
X-893Y312D01*
X-893Y311D01*
X-894Y310D01*
X-895Y309D01*
X-896Y309D01*
X-896Y308D01*
X-897Y307D01*
X-898Y306D01*
X-898Y306D01*
X-899Y305D01*
X-899Y304D01*
X-900Y303D01*
X-901Y302D01*
X-901Y301D01*
X-902Y300D01*
X-902Y299D01*
X-902Y298D01*
X-903Y297D01*
X-903Y296D01*
X-903Y296D01*
X-904Y295D01*
X-904Y294D01*
X-904Y293D01*
X-905Y292D01*
X-905Y291D01*
X-905Y290D01*
X-905Y288D01*
X-905Y287D01*
X-905Y286D01*
X-905Y285D01*
X-905Y284D01*
X-905Y283D01*
X-905Y282D01*
X-905Y281D01*
X-905Y280D01*
X-905Y279D01*
X-905Y278D01*
X-905Y277D01*
X-904Y276D01*
X-904Y275D01*
X-904Y274D01*
X-903Y273D01*
X-903Y272D01*
X-903Y271D01*
X-902Y270D01*
X-902Y269D01*
X-902Y268D01*
X-901Y268D01*
X-901Y267D01*
X-900Y266D01*
X-899Y265D01*
X-899Y264D01*
X-898Y263D01*
X-898Y262D01*
X-897Y262D01*
X-896Y261D01*
X-896Y260D01*
X-895Y259D01*
X-894Y259D01*
X-893Y258D01*
X-893Y257D01*
X-892Y257D01*
X-891Y256D01*
X-890Y255D01*
X-889Y255D01*
X-888Y254D01*
X-888Y254D01*
X-887Y253D01*
X-886Y253D01*
X-885Y252D01*
X-884Y252D01*
X-883Y251D01*
X-882Y251D01*
X-881Y251D01*
X-880Y250D01*
X-879Y250D01*
X-878Y250D01*
X-877Y250D01*
X-876Y249D01*
X-875Y249D01*
X-874Y249D01*
X-873Y249D01*
X-872Y249D01*
X-871Y249D01*
X-870Y249D01*
X-850D01*
X-849Y249D01*
X-848Y249D01*
X-847Y249D01*
X-846Y249D01*
X-845Y249D01*
X-844Y249D01*
X-843Y250D01*
X-842Y250D01*
X-841Y250D01*
X-840Y250D01*
X-839Y251D01*
X-838Y251D01*
X-837Y251D01*
X-836Y252D01*
X-835Y252D01*
X-834Y253D01*
X-833Y253D01*
X-832Y254D01*
X-832Y254D01*
X-831Y255D01*
X-830Y255D01*
X-829Y256D01*
X-828Y257D01*
X-827Y257D01*
X-827Y258D01*
X-826Y259D01*
X-825Y259D01*
X-824Y260D01*
X-824Y261D01*
X-823Y262D01*
X-822Y262D01*
X-822Y263D01*
X-821Y264D01*
X-821Y265D01*
X-820Y266D01*
X-819Y267D01*
X-819Y268D01*
X-818Y268D01*
X-818Y269D01*
X-818Y270D01*
X-817Y271D01*
X-817Y272D01*
X-817Y273D01*
X-816Y274D01*
X-816Y275D01*
X-816Y276D01*
X-815Y277D01*
X-815Y278D01*
X-815Y279D01*
X-815Y280D01*
X-815Y281D01*
X-815Y282D01*
X-815Y283D01*
X-815Y284D01*
X-815Y285D01*
X-815Y286D01*
X-815Y287D01*
X-815Y288D01*
X-815Y290D01*
X-815Y291D01*
X-815Y292D01*
X-816Y293D01*
X-816Y294D01*
X-816Y295D01*
X-817Y296D01*
X-817Y296D01*
X-817Y297D01*
X-818Y298D01*
X-818Y299D01*
X-818Y300D01*
X-819Y301D01*
X-819Y302D01*
X-820Y303D01*
X-821Y304D01*
X-821Y305D01*
X-822Y306D01*
X-822Y306D01*
X-823Y307D01*
X-824Y308D01*
X-824Y309D01*
X-825Y309D01*
X-826Y310D01*
X-827Y311D01*
X-827Y312D01*
X-828Y312D01*
X-829Y313D01*
X-830Y313D01*
X-831Y314D01*
X-832Y315D01*
X-832Y315D01*
X-833Y316D01*
X-834Y316D01*
X-835Y316D01*
X-836Y317D01*
X-837Y317D01*
X-838Y318D01*
X-839Y318D01*
X-840Y318D01*
X-841Y319D01*
X-842Y319D01*
X-843Y319D01*
X-844Y319D01*
X-845Y319D01*
X-846Y320D01*
X-847Y320D01*
X-848Y320D01*
X-849Y320D01*
X-850Y320D01*
D02*
G37*
G36*
X-1281Y587D02*
X-1319D01*
X-1337Y569D01*
Y531D01*
X-1319Y513D01*
X-1281D01*
X-1263Y531D01*
Y569D01*
X-1281Y587D01*
D02*
G37*
G36*
X200Y967D02*
X136D01*
X103Y935D01*
Y870D01*
X136Y837D01*
X200D01*
X233Y870D01*
Y935D01*
X200Y967D01*
D02*
G37*
G36*
X-1281Y787D02*
X-1319D01*
X-1337Y769D01*
Y731D01*
X-1319Y713D01*
X-1281D01*
X-1263Y731D01*
Y769D01*
X-1281Y787D01*
D02*
G37*
G36*
X-994Y651D02*
X-994Y651D01*
X-995Y651D01*
X-996Y651D01*
X-996Y651D01*
X-997Y651D01*
X-998Y651D01*
X-999Y650D01*
X-999Y650D01*
X-1000Y650D01*
X-1001Y650D01*
X-1001Y649D01*
X-1002Y649D01*
X-1003Y649D01*
X-1003Y648D01*
X-1004Y648D01*
X-1004Y647D01*
X-1005Y647D01*
X-1006Y647D01*
X-1006Y646D01*
X-1007Y646D01*
X-1007Y645D01*
X-1007Y644D01*
X-1008Y644D01*
X-1119D01*
X-1119Y644D01*
X-1119Y645D01*
X-1120Y646D01*
X-1120Y646D01*
X-1121Y647D01*
X-1122Y647D01*
X-1122Y647D01*
X-1123Y648D01*
X-1123Y648D01*
X-1124Y649D01*
X-1125Y649D01*
X-1125Y649D01*
X-1126Y650D01*
X-1127Y650D01*
X-1127Y650D01*
X-1128Y650D01*
X-1129Y651D01*
X-1129Y651D01*
X-1130Y651D01*
X-1131Y651D01*
X-1132Y651D01*
X-1132Y651D01*
X-1133Y651D01*
X-1134Y651D01*
X-1134Y651D01*
X-1135Y651D01*
X-1136Y651D01*
X-1137Y651D01*
X-1137Y651D01*
X-1138Y650D01*
X-1139Y650D01*
X-1139Y650D01*
X-1140Y650D01*
X-1141Y649D01*
X-1141Y649D01*
X-1142Y649D01*
X-1143Y648D01*
X-1143Y648D01*
X-1144Y647D01*
X-1144Y647D01*
X-1145Y647D01*
X-1146Y646D01*
X-1146Y646D01*
X-1147Y645D01*
X-1147Y644D01*
X-1147Y644D01*
X-1148Y643D01*
X-1148Y643D01*
X-1149Y642D01*
X-1149Y641D01*
X-1149Y641D01*
X-1150Y640D01*
X-1150Y639D01*
X-1150Y639D01*
X-1150Y638D01*
X-1150Y637D01*
X-1150Y636D01*
X-1151Y636D01*
X-1151Y635D01*
X-1151Y634D01*
X-1151Y634D01*
X-1151Y633D01*
X-1151Y632D01*
X-1151Y631D01*
X-1150Y631D01*
X-1150Y630D01*
X-1150Y629D01*
X-1150Y628D01*
X-1150Y628D01*
X-1150Y627D01*
X-1149Y626D01*
X-1149Y626D01*
X-1149Y625D01*
X-1148Y624D01*
X-1148Y624D01*
X-1147Y623D01*
X-1147Y623D01*
X-1147Y622D01*
X-1146Y622D01*
X-1146Y621D01*
X-1145Y620D01*
X-1144Y620D01*
X-1144Y620D01*
X-1143Y619D01*
X-1143Y619D01*
X-1142Y618D01*
X-1141Y618D01*
X-1141Y618D01*
X-1140Y617D01*
X-1139Y617D01*
X-1139Y617D01*
X-1138Y617D01*
X-1137Y616D01*
X-1137Y616D01*
X-1136Y616D01*
X-1135Y616D01*
X-1134Y616D01*
X-1134Y616D01*
X-1133Y616D01*
X-1132Y616D01*
X-1132Y616D01*
X-1131Y616D01*
X-1130Y616D01*
X-1129Y616D01*
X-1129Y616D01*
X-1128Y617D01*
X-1127Y617D01*
X-1127Y617D01*
X-1126Y617D01*
X-1125Y618D01*
X-1125Y618D01*
X-1124Y618D01*
X-1123Y619D01*
X-1123Y619D01*
X-1122Y620D01*
X-1122Y620D01*
X-1121Y620D01*
X-1120Y621D01*
X-1120Y622D01*
X-1119Y622D01*
X-1119Y623D01*
X-1119Y623D01*
X-1008D01*
X-1007Y623D01*
X-1007Y622D01*
X-1007Y622D01*
X-1006Y621D01*
X-1006Y620D01*
X-1005Y620D01*
X-1004Y620D01*
X-1004Y619D01*
X-1003Y619D01*
X-1003Y618D01*
X-1002Y618D01*
X-1001Y618D01*
X-1001Y617D01*
X-1000Y617D01*
X-999Y617D01*
X-999Y617D01*
X-998Y616D01*
X-997Y616D01*
X-996Y616D01*
X-996Y616D01*
X-995Y616D01*
X-994Y616D01*
X-994Y616D01*
X-993Y616D01*
X-992Y616D01*
X-991Y616D01*
X-991Y616D01*
X-990Y616D01*
X-989Y616D01*
X-988Y617D01*
X-988Y617D01*
X-987Y617D01*
X-986Y617D01*
X-986Y618D01*
X-985Y618D01*
X-984Y618D01*
X-984Y619D01*
X-983Y619D01*
X-983Y620D01*
X-982Y620D01*
X-982Y620D01*
X-981Y621D01*
X-980Y622D01*
X-980Y622D01*
X-980Y623D01*
X-979Y623D01*
X-979Y624D01*
X-978Y624D01*
X-978Y625D01*
X-978Y626D01*
X-977Y626D01*
X-977Y627D01*
X-977Y628D01*
X-977Y628D01*
X-976Y629D01*
X-976Y630D01*
X-976Y631D01*
X-976Y631D01*
X-976Y632D01*
X-976Y633D01*
X-976Y634D01*
X-976Y634D01*
X-976Y635D01*
X-976Y636D01*
X-976Y636D01*
X-976Y637D01*
X-976Y638D01*
X-977Y639D01*
X-977Y639D01*
X-977Y640D01*
X-977Y641D01*
X-978Y641D01*
X-978Y642D01*
X-978Y643D01*
X-979Y643D01*
X-979Y644D01*
X-980Y644D01*
X-980Y645D01*
X-980Y646D01*
X-981Y646D01*
X-982Y647D01*
X-982Y647D01*
X-983Y647D01*
X-983Y648D01*
X-984Y648D01*
X-984Y649D01*
X-985Y649D01*
X-986Y649D01*
X-986Y650D01*
X-987Y650D01*
X-988Y650D01*
X-988Y650D01*
X-989Y651D01*
X-990Y651D01*
X-991Y651D01*
X-991Y651D01*
X-992Y651D01*
X-993Y651D01*
X-994Y651D01*
D02*
G37*
%LPD*%
D28*
X-115Y437D02*
Y609D01*
X-280Y272D02*
X-115Y437D01*
X-134Y628D02*
X-115Y609D01*
X-640Y272D02*
X-280D01*
X-117Y636D02*
X-98Y617D01*
Y429D02*
Y617D01*
X-93Y637D02*
X-80Y624D01*
Y422D02*
Y624D01*
X-93Y637D02*
Y920D01*
X-117Y636D02*
Y919D01*
X-110Y926D01*
X-134Y628D02*
Y927D01*
X-127Y934D01*
X-179Y1121D02*
X-100Y1200D01*
X-157Y1062D02*
X-146D01*
X-179Y1084D02*
X-157Y1062D01*
X-179Y1084D02*
Y1121D01*
X-156Y346D02*
X-80Y422D01*
X-156Y44D02*
Y346D01*
X-236Y291D02*
X-98Y429D01*
X-93Y920D02*
X-32Y981D01*
X-110Y926D02*
Y953D01*
X-127Y934D02*
Y1026D01*
X-23Y999D02*
X14Y1035D01*
X39D01*
X-3Y994D02*
X76D01*
X-64Y999D02*
X-23D01*
X-16Y981D02*
X-3Y994D01*
X-32Y981D02*
X-16D01*
X76Y994D02*
X117Y1035D01*
X-110Y953D02*
X-64Y999D01*
X-127Y1026D02*
X-119Y1035D01*
X-236Y64D02*
Y291D01*
X-146Y1062D02*
X-119Y1035D01*
X-346Y54D02*
Y86D01*
X-1133Y634D02*
X-994D01*
X-400Y0D02*
X-346Y54D01*
X-585Y0D02*
X-484Y101D01*
X-600Y0D02*
X-585D01*
X-300D02*
X-236Y64D01*
X-928Y577D02*
Y634D01*
Y577D02*
X-822Y471D01*
X-751D01*
X-484Y101D02*
Y102D01*
X-200Y0D02*
X-156Y44D01*
X-1000Y0D02*
Y86D01*
X-947Y139D01*
X-774D01*
X-640Y272D01*
D29*
X-157Y519D02*
X-137Y539D01*
X-197Y519D02*
X-157D01*
X-137Y539D02*
Y605D01*
X-153Y621D02*
X-137Y605D01*
X-153Y621D02*
Y788D01*
X-173Y603D02*
Y686D01*
X-223Y736D02*
X-173Y686D01*
X-197Y519D02*
Y677D01*
X-173Y603D02*
X-161Y591D01*
X-179Y814D02*
X-153Y788D01*
X-197Y829D02*
Y907D01*
X-232Y942D02*
X-197Y907D01*
X-203Y824D02*
X-197Y829D01*
X-203Y779D02*
Y824D01*
X-223Y736D02*
Y900D01*
X-256Y932D02*
Y952D01*
Y932D02*
X-223Y900D01*
X-203Y779D02*
X-179Y756D01*
X-448Y372D02*
X-389Y431D01*
X-179Y738D02*
Y756D01*
X-256Y952D02*
X-242Y966D01*
X-389Y431D02*
X-223D01*
X-390D02*
X-389D01*
X-197Y457D02*
Y519D01*
X-223Y431D02*
X-197Y457D01*
X-1137Y1119D02*
X-811D01*
X-554Y862D01*
X-242Y966D02*
X-210D01*
X-208Y964D01*
X-542Y974D02*
X-410D01*
X-566Y950D02*
X-542Y974D01*
X-619Y346D02*
X-616Y349D01*
X-100Y0D02*
X-81Y19D01*
X-619Y346D02*
Y368D01*
X-615Y372D01*
X-448D01*
X-554Y862D02*
X-317D01*
X-81Y19D02*
Y226D01*
D30*
X-59Y249D02*
Y922D01*
Y249D02*
X-26Y217D01*
X-59Y922D02*
X-23Y958D01*
X92D01*
X196Y1035D02*
Y1087D01*
X178Y1105D02*
X196Y1087D01*
X128Y994D02*
X155D01*
X92Y958D02*
X128Y994D01*
X155D02*
X196Y1035D01*
X-125Y1105D02*
X178D01*
X-777Y763D02*
Y783D01*
X-812Y728D02*
X-777Y763D01*
Y783D02*
X-767Y793D01*
Y1036D01*
D31*
X-703Y394D02*
X-630Y320D01*
X-703Y394D02*
Y491D01*
X-630Y320D02*
X-264D01*
X-138Y446D01*
X-758Y546D02*
X-703Y491D01*
X-758Y546D02*
Y670D01*
D32*
X0Y0D02*
Y191D01*
X-26Y217D02*
X0Y191D01*
D33*
X-1300Y1150D02*
D03*
Y1050D02*
D03*
Y950D02*
D03*
Y850D02*
D03*
Y750D02*
D03*
Y650D02*
D03*
Y550D02*
D03*
Y450D02*
D03*
Y350D02*
D03*
Y250D02*
D03*
Y150D02*
D03*
Y50D02*
D03*
D34*
X-512Y169D02*
D03*
X-434D02*
D03*
X-355D02*
D03*
X-276D02*
D03*
X-197D02*
D03*
X-119D02*
D03*
X-40D02*
D03*
X39D02*
D03*
X117D02*
D03*
X196D02*
D03*
X-512Y1035D02*
D03*
X-434D02*
D03*
X-355D02*
D03*
X-276D02*
D03*
X-197D02*
D03*
X-119D02*
D03*
X-40D02*
D03*
X39D02*
D03*
X117D02*
D03*
X196D02*
D03*
D35*
X-1100Y1200D02*
D03*
X-1000D02*
D03*
X-900D02*
D03*
X-800D02*
D03*
X-700D02*
D03*
X-600D02*
D03*
X-500D02*
D03*
X-400D02*
D03*
X-300D02*
D03*
X-200D02*
D03*
X-100D02*
D03*
X0D02*
D03*
Y0D02*
D03*
X-100D02*
D03*
X-200D02*
D03*
X-300D02*
D03*
X-400D02*
D03*
X-500D02*
D03*
X-600D02*
D03*
X-700D02*
D03*
X-800D02*
D03*
X-900D02*
D03*
X-1000D02*
D03*
X-1100D02*
D03*
D36*
X-860Y284D02*
D03*
Y206D02*
D03*
D37*
X18Y347D02*
D03*
Y858D02*
D03*
X168Y302D02*
D03*
Y902D02*
D03*
D38*
X-1200Y1200D02*
D03*
X100Y0D02*
D03*
D39*
X-560Y915D02*
D03*
X-447Y423D02*
D03*
X-122Y327D02*
D03*
X-161Y591D02*
D03*
X-197Y677D02*
D03*
X-179Y738D02*
D03*
X-812Y728D02*
D03*
X-777Y783D02*
D03*
X-150Y943D02*
D03*
X-232Y942D02*
D03*
X-179Y814D02*
D03*
X-138Y446D02*
D03*
X-410Y974D02*
D03*
X-346Y86D02*
D03*
X-619Y346D02*
D03*
X-928Y634D02*
D03*
X-1133Y634D02*
D03*
X-994D02*
D03*
X-1137Y1119D02*
D03*
X-566Y950D02*
D03*
X-390Y431D02*
D03*
X-758Y670D02*
D03*
X-767Y1036D02*
D03*
X-125Y1105D02*
D03*
X-1204Y173D02*
D03*
X-304Y240D02*
D03*
X-730Y865D02*
D03*
X-717Y611D02*
D03*
X-951Y548D02*
D03*
X-751Y471D02*
D03*
X-208Y964D02*
D03*
X-317Y862D02*
D03*
X-484Y102D02*
D03*
X-81Y226D02*
D03*
D40*
X-377Y679D02*
D03*
X-344Y679D02*
D03*
X-377Y715D02*
D03*
X-344D02*
D03*
M02*
