M48
;Layer_Color=9474304
;FILE_FORMAT=2:3
INCH,LZ
;TYPE=PLATED
T1F00S00C0.010
T2F00S00C0.024
T3F00S00C0.039
T4F00S00C0.059
%
T01
X-01204Y00173
X-00484Y00102
X-00346Y00086
X-00304Y0024
X-00081Y00226
X-00122Y00327
X-00138Y00446
X-00161Y00591
X-00197Y00677
X-00179Y00738
Y00814
X-0015Y00943
X-00208Y00964
X-00232Y00942
X-00317Y00862
X-00344Y00715
X-00377
Y00679
X-00344Y00679
X-0039Y00431
X-00447Y00423
X-00619Y00346
X-00751Y00471
X-00717Y00611
X-00758Y0067
X-00812Y00728
X-00777Y00783
X-0073Y00865
X-00767Y01036
X-00566Y0095
X-0056Y00915
X-0041Y00974
X-00125Y01105
X-01137Y01119
X-01133Y00634
X-00994
X-00928Y00634
X-00951Y00548
T02
X-0004Y00169
X00039
X00117
X00196
X-00119
X-00197
X-00276
X-00355
X-00434
X-00512
Y01035
X-00434
X-00355
X-00276
X-00197
X-00119
X-0004
X00039
X00117
X00196
T03
X0Y0
X-001
X-002
X-003
X-004
X-005
X-006
X-007
X-008
X-009
X-01
X-011
X-013Y0005
Y0015
Y0025
Y0035
Y0045
Y0055
Y0065
Y0075
Y0085
Y0095
Y0105
Y0115
X-011Y012
X-01
X-009
X-008
X-007
X-006
X-005
X-004
X-003
X-002
X-001
X-0086Y00284
Y00206
X00018Y00347
X00168Y00302
Y00902
X00018Y00858
X0Y012
T04
X001Y0
X-012Y012
M30
