%FSLAX23Y23*%
%MOIN*%
G70*
G01*
G75*
G04 Layer_Color=16711935*
%ADD10R,0.024X0.024*%
%ADD11R,0.012X0.016*%
%ADD12R,0.126X0.055*%
%ADD13R,0.031X0.024*%
%ADD14R,0.018X0.012*%
%ADD15R,0.024X0.020*%
%ADD16R,0.024X0.031*%
%ADD17R,0.039X0.039*%
%ADD18R,0.033X0.014*%
%ADD19R,0.028X0.039*%
%ADD20R,0.039X0.079*%
%ADD21R,0.039X0.063*%
%ADD22R,0.059X0.059*%
%ADD23R,0.020X0.010*%
%ADD24R,0.010X0.020*%
G04:AMPARAMS|DCode=25|XSize=20mil|YSize=10mil|CornerRadius=0mil|HoleSize=0mil|Usage=FLASHONLY|Rotation=90.000|XOffset=0mil|YOffset=0mil|HoleType=Round|Shape=Octagon|*
%AMOCTAGOND25*
4,1,8,0.002,0.010,-0.002,0.010,-0.005,0.007,-0.005,-0.007,-0.002,-0.010,0.002,-0.010,0.005,-0.007,0.005,0.007,0.002,0.010,0.0*
%
%ADD25OCTAGOND25*%

%ADD26R,0.039X0.039*%
%ADD27C,0.010*%
%ADD28C,0.010*%
%ADD29C,0.012*%
%ADD30C,0.020*%
%ADD31C,0.016*%
%ADD32C,0.014*%
%ADD33P,0.068X8X292.5*%
%ADD34P,0.051X8X202.5*%
%ADD35P,0.068X8X202.5*%
%ADD36O,0.079X0.059*%
%ADD37P,0.128X8X22.5*%
%ADD38C,0.059*%
%ADD39C,0.024*%
%ADD40C,0.026*%
%ADD41C,0.006*%
%ADD42C,0.004*%
%ADD43C,0.008*%
%ADD44C,0.005*%
D33*
X-1300Y1150D02*
D03*
Y1050D02*
D03*
Y950D02*
D03*
Y850D02*
D03*
Y750D02*
D03*
Y650D02*
D03*
Y550D02*
D03*
Y450D02*
D03*
Y350D02*
D03*
Y250D02*
D03*
Y150D02*
D03*
Y50D02*
D03*
D34*
X-512Y169D02*
D03*
X-434D02*
D03*
X-355D02*
D03*
X-276D02*
D03*
X-197D02*
D03*
X-119D02*
D03*
X-40D02*
D03*
X39D02*
D03*
X117D02*
D03*
X196D02*
D03*
X-512Y1035D02*
D03*
X-434D02*
D03*
X-355D02*
D03*
X-276D02*
D03*
X-197D02*
D03*
X-119D02*
D03*
X-40D02*
D03*
X39D02*
D03*
X117D02*
D03*
X196D02*
D03*
D35*
X-1100Y1200D02*
D03*
X-1000D02*
D03*
X-900D02*
D03*
X-800D02*
D03*
X-700D02*
D03*
X-600D02*
D03*
X-500D02*
D03*
X-400D02*
D03*
X-300D02*
D03*
X-200D02*
D03*
X-100D02*
D03*
X0D02*
D03*
Y0D02*
D03*
X-100D02*
D03*
X-200D02*
D03*
X-300D02*
D03*
X-400D02*
D03*
X-500D02*
D03*
X-600D02*
D03*
X-700D02*
D03*
X-800D02*
D03*
X-900D02*
D03*
X-1000D02*
D03*
X-1100D02*
D03*
D36*
X-860Y284D02*
D03*
Y206D02*
D03*
D37*
X18Y347D02*
D03*
Y858D02*
D03*
X168Y302D02*
D03*
Y902D02*
D03*
M02*
