%FSLAX23Y23*%
%MOIN*%
G70*
G01*
G75*
G04 Layer_Physical_Order=1*
G04 Layer_Color=255*
%ADD10R,0.024X0.024*%
%ADD11R,0.012X0.016*%
%ADD12R,0.126X0.055*%
%ADD13R,0.031X0.024*%
%ADD14R,0.018X0.012*%
%ADD15R,0.024X0.020*%
%ADD16R,0.024X0.031*%
%ADD17R,0.039X0.039*%
%ADD18R,0.033X0.014*%
%ADD19R,0.028X0.039*%
%ADD20R,0.039X0.079*%
%ADD21R,0.039X0.063*%
%ADD22R,0.059X0.059*%
%ADD23R,0.020X0.010*%
%ADD24R,0.010X0.020*%
G04:AMPARAMS|DCode=25|XSize=20mil|YSize=10mil|CornerRadius=0mil|HoleSize=0mil|Usage=FLASHONLY|Rotation=90.000|XOffset=0mil|YOffset=0mil|HoleType=Round|Shape=Octagon|*
%AMOCTAGOND25*
4,1,8,0.002,0.010,-0.002,0.010,-0.005,0.007,-0.005,-0.007,-0.002,-0.010,0.002,-0.010,0.005,-0.007,0.005,0.007,0.002,0.010,0.0*
%
%ADD25OCTAGOND25*%

%ADD26R,0.039X0.039*%
%ADD27C,0.010*%
%ADD28C,0.010*%
%ADD29C,0.012*%
%ADD30C,0.020*%
%ADD31C,0.016*%
%ADD32C,0.014*%
%ADD33P,0.068X8X292.5*%
%ADD34P,0.051X8X202.5*%
%ADD35P,0.068X8X202.5*%
%ADD36O,0.079X0.059*%
%ADD37P,0.128X8X22.5*%
%ADD38C,0.059*%
%ADD39C,0.024*%
%ADD40C,0.026*%
G36*
X-327Y673D02*
X-336Y663D01*
X-393D01*
Y730D01*
X-327D01*
Y673D01*
D02*
G37*
D10*
X-1205Y0D02*
D03*
Y92D02*
D03*
D11*
X-1188Y1102D02*
D03*
X-1224D02*
D03*
D12*
X-885Y831D02*
D03*
Y981D02*
D03*
D13*
X-958Y670D02*
D03*
Y723D02*
D03*
Y628D02*
D03*
Y575D02*
D03*
X-671Y673D02*
D03*
Y726D02*
D03*
X-378Y528D02*
D03*
Y475D02*
D03*
X-201Y304D02*
D03*
Y357D02*
D03*
X-151D02*
D03*
Y304D02*
D03*
X-101D02*
D03*
Y357D02*
D03*
D14*
X-844Y700D02*
D03*
Y680D02*
D03*
Y660D02*
D03*
X-906D02*
D03*
Y680D02*
D03*
Y700D02*
D03*
D15*
X-902Y630D02*
D03*
Y590D02*
D03*
X-840Y610D02*
D03*
D16*
X-885Y549D02*
D03*
X-832D02*
D03*
X-522Y858D02*
D03*
X-469D02*
D03*
X-647Y950D02*
D03*
X-594D02*
D03*
Y850D02*
D03*
X-647D02*
D03*
Y800D02*
D03*
X-594D02*
D03*
X-332Y524D02*
D03*
X-279D02*
D03*
X-332Y424D02*
D03*
X-279D02*
D03*
X-424Y474D02*
D03*
X-477D02*
D03*
X-424Y525D02*
D03*
X-477D02*
D03*
X-521D02*
D03*
X-574D02*
D03*
X-521Y475D02*
D03*
X-574D02*
D03*
X-521Y425D02*
D03*
X-574D02*
D03*
X-575Y352D02*
D03*
X-522D02*
D03*
Y302D02*
D03*
X-575D02*
D03*
X-575Y252D02*
D03*
X-522D02*
D03*
X-17Y540D02*
D03*
X36D02*
D03*
Y590D02*
D03*
X-17D02*
D03*
X-376Y817D02*
D03*
X-323D02*
D03*
X-279Y374D02*
D03*
X-332D02*
D03*
X-332Y474D02*
D03*
X-279D02*
D03*
D17*
X-274Y912D02*
D03*
X-364Y875D02*
D03*
Y949D02*
D03*
X-233Y776D02*
D03*
X-143Y813D02*
D03*
Y739D02*
D03*
D18*
X-521Y950D02*
D03*
Y924D02*
D03*
Y898D02*
D03*
X-435D02*
D03*
Y924D02*
D03*
Y950D02*
D03*
D19*
X-276Y316D02*
D03*
X-346D02*
D03*
X-210Y881D02*
D03*
X-140D02*
D03*
D20*
X-1090Y470D02*
D03*
D21*
X-870D02*
D03*
D22*
X-150Y534D02*
D03*
Y655D02*
D03*
D23*
X-311Y667D02*
D03*
Y686D02*
D03*
Y706D02*
D03*
Y726D02*
D03*
X-409D02*
D03*
Y706D02*
D03*
Y686D02*
D03*
Y667D02*
D03*
D24*
X-330Y745D02*
D03*
X-350D02*
D03*
X-390D02*
D03*
Y647D02*
D03*
X-370D02*
D03*
X-350D02*
D03*
X-370Y745D02*
D03*
D25*
X-330Y647D02*
D03*
D26*
X-360Y696D02*
D03*
D27*
X-1350Y1250D02*
X250D01*
Y-50D02*
Y1250D01*
X-1350Y-50D02*
X250D01*
X-1350D02*
Y1250D01*
D28*
X-560Y915D02*
X-551Y924D01*
X-521D01*
X-496Y402D02*
X-459Y439D01*
Y435D02*
X-447Y423D01*
X-459Y439D02*
X-424Y474D01*
X-459Y435D02*
Y439D01*
X-122Y327D02*
X-122Y327D01*
X-122Y325D02*
Y327D01*
Y325D02*
X-101Y304D01*
X-140Y265D02*
X-101Y304D01*
X-279Y265D02*
X-140D01*
X-429Y79D02*
X-400Y109D01*
X-621Y79D02*
X-574D01*
Y79D02*
X-496D01*
X-496Y79D01*
X-429D01*
X-700Y0D02*
X-621Y79D01*
X-953Y696D02*
X-938D01*
X-929Y687D01*
Y668D02*
Y687D01*
Y668D02*
X-921Y660D01*
X-906D01*
X-844Y700D02*
X-782D01*
X-906Y680D02*
X-888D01*
X-884Y676D01*
Y634D02*
Y676D01*
X-957Y634D02*
X-884D01*
X-820Y634D02*
Y672D01*
X-828Y680D02*
X-820Y672D01*
X-866Y660D02*
Y686D01*
X-880Y700D02*
X-866Y686D01*
X-906Y700D02*
X-880D01*
X-607Y699D02*
X-496Y810D01*
X-444D01*
X-405Y849D01*
X-370Y607D02*
X-370Y607D01*
X-370Y607D02*
Y647D01*
X-350Y621D02*
X-350Y621D01*
X-350Y621D02*
Y647D01*
X-239Y840D02*
X-178Y779D01*
X-110D01*
X-341Y670D02*
X-331Y660D01*
Y648D02*
Y660D01*
X-389Y668D02*
X-360Y696D01*
X-408Y668D02*
X-389D01*
X-409Y667D02*
X-408Y668D01*
X-262Y840D02*
X-239D01*
X-335Y913D02*
X-262Y840D01*
X-311Y706D02*
X-85D01*
X-844Y680D02*
X-828D01*
X-405Y849D02*
Y893D01*
X-385Y913D01*
X-335D01*
X-85Y706D02*
X-73D01*
X-85D02*
Y770D01*
X-73Y706D02*
X-73Y706D01*
X-311Y706D02*
X-311Y706D01*
X-279Y265D02*
Y374D01*
X-304Y240D02*
X-279Y265D01*
X-400Y109D02*
X-100D01*
X-40Y169D01*
X-458Y128D02*
X-160D01*
X-484Y102D02*
X-458Y128D01*
X35Y86D02*
X117Y169D01*
X-346Y86D02*
X35D01*
X-160Y128D02*
X-119Y169D01*
X-438Y62D02*
X89D01*
X-454Y169D02*
X-434D01*
X-684Y116D02*
X-507D01*
X-454Y169D01*
X-424Y474D02*
X-424Y474D01*
X-522Y252D02*
Y302D01*
X-522Y302D02*
X-522Y302D01*
X-503Y302D02*
X-496Y309D01*
X-522Y302D02*
X-503D01*
X-279Y374D02*
Y424D01*
X-424Y474D02*
X-379D01*
X-378Y475D01*
X-496Y309D02*
Y402D01*
X-73Y557D02*
X-56Y540D01*
X-17D01*
X-424Y474D02*
Y525D01*
X-866Y660D02*
X-866Y660D01*
X-844D01*
X-913Y723D02*
X-906Y716D01*
Y700D02*
Y716D01*
X-839Y549D02*
X-839Y549D01*
Y615D01*
X-820Y634D01*
X-1300Y750D02*
X-1184Y634D01*
X-1133D01*
X-994D02*
X-957D01*
X-957Y634D01*
X-500Y0D02*
X-438Y62D01*
X89D02*
X196Y169D01*
X-73Y557D02*
Y706D01*
X-79Y794D02*
Y1121D01*
X-85Y788D02*
X-79Y794D01*
Y1121D02*
X0Y1200D01*
X-997Y670D02*
X-958D01*
X-1019Y624D02*
X-990Y595D01*
X-1019Y624D02*
Y649D01*
X-997Y670D01*
X-110Y779D02*
X-101Y770D01*
X-85D01*
Y788D01*
X-800Y0D02*
X-684Y116D01*
X-900Y0D02*
X-731Y169D01*
X-512D01*
X-331Y648D02*
X-330Y647D01*
X-344Y679D02*
X-333Y668D01*
X-409Y667D02*
X-409D01*
X-390Y614D02*
Y647D01*
Y614D02*
X-390Y614D01*
X-409Y667D02*
X-409Y667D01*
X-424Y525D02*
Y652D01*
X-409Y667D01*
X-372Y786D02*
X-350Y764D01*
Y745D02*
Y764D01*
X-751Y471D02*
Y509D01*
X-474Y786D01*
X-372D01*
X-671Y657D02*
Y673D01*
X-717Y611D02*
X-671Y657D01*
X-957Y567D02*
Y595D01*
X-990D02*
X-957D01*
X-904D01*
X-866Y568D02*
Y660D01*
X-885Y549D02*
X-866Y568D01*
D29*
X-142Y216D02*
X-71Y286D01*
X-327Y216D02*
X-142D01*
X-71Y286D02*
Y382D01*
X-90Y401D02*
X-71Y382D01*
X-207Y686D02*
X-197Y677D01*
X-311Y686D02*
X-207D01*
X-161Y591D02*
X-153D01*
X-985Y696D02*
X-953D01*
X-594Y800D02*
X-553D01*
X-514Y819D02*
X-504Y828D01*
X-553Y800D02*
X-534Y819D01*
X-514D01*
X-621Y826D02*
Y877D01*
X-647Y800D02*
X-621Y826D01*
X-692Y755D02*
X-647Y800D01*
X-987Y755D02*
X-692D01*
X-992Y750D02*
X-987Y755D01*
X-992Y703D02*
Y750D01*
Y703D02*
X-985Y696D01*
X-504Y828D02*
X-451D01*
X-435Y845D01*
Y898D01*
X-370Y575D02*
Y607D01*
X-350Y612D02*
Y621D01*
X-187Y905D02*
Y941D01*
X-210Y881D02*
X-187Y905D01*
X-208Y933D02*
Y964D01*
X-222Y918D02*
X-208Y933D01*
X-239Y949D02*
X-232Y942D01*
X-150Y943D02*
X-140Y933D01*
Y881D02*
Y933D01*
X-187Y941D02*
X-170Y958D01*
X-318Y861D02*
X-233Y776D01*
X-210Y881D02*
X-143Y814D01*
X-281Y738D02*
X-179D01*
X-303Y760D02*
X-281Y738D01*
X-303Y760D02*
Y790D01*
X-323Y810D02*
X-303Y790D01*
X-210Y881D02*
Y881D01*
X-344Y606D02*
X-222D01*
X-170Y958D02*
Y990D01*
X-548Y326D02*
X-522Y352D01*
X-673Y929D02*
X-621Y877D01*
X-521Y898D02*
X-491D01*
X-507Y978D02*
X-491Y962D01*
Y898D02*
Y962D01*
X-469Y858D02*
Y907D01*
X-452Y924D02*
X-435D01*
X-469Y907D02*
X-452Y924D01*
X-647Y950D02*
X-617Y980D01*
X-178Y998D02*
X-170Y990D01*
X-530Y998D02*
X-178D01*
X-617Y980D02*
X-540D01*
X-645Y999D02*
X-532D01*
X-538Y978D02*
X-507D01*
X-540Y980D02*
X-538Y978D01*
X-532Y999D02*
X-530Y998D01*
X-673Y929D02*
Y971D01*
X-645Y999D01*
X-364Y949D02*
X-239D01*
X-267Y918D02*
X-222D01*
X-274Y912D02*
X-267Y918D01*
X-441Y956D02*
Y997D01*
X-389Y974D02*
X-364Y949D01*
X-410Y974D02*
X-389D01*
X-179Y814D02*
X-143D01*
X9Y506D02*
Y564D01*
X-4Y494D02*
X9Y506D01*
X-17Y590D02*
X9Y564D01*
X-346Y235D02*
X-327Y216D01*
X-346Y235D02*
Y316D01*
X-332Y330D02*
Y374D01*
X-346Y316D02*
X-332Y330D01*
X-236Y345D02*
X-201Y310D01*
X-236Y345D02*
Y456D01*
X-305Y401D02*
Y547D01*
X-332Y374D02*
X-305Y401D01*
X-201Y304D02*
Y310D01*
X-187Y401D02*
X-90D01*
X18Y266D02*
Y347D01*
X-22Y226D02*
X18Y266D01*
X-81Y226D02*
X-22D01*
X-189Y653D02*
X-151D01*
X-207Y635D02*
X-189Y653D01*
X-201Y387D02*
X-187Y401D01*
X-201Y357D02*
Y387D01*
X-330Y726D02*
X-311D01*
X-330Y727D02*
X-330Y726D01*
X-330Y727D02*
Y745D01*
X-575Y302D02*
Y352D01*
X-521Y475D02*
X-478D01*
X-477Y474D01*
X-521Y525D02*
X-477D01*
X-574Y425D02*
Y475D01*
Y525D01*
X-279Y474D02*
Y524D01*
Y474D02*
X-279Y474D01*
X-390Y540D02*
X-378Y528D01*
X-332Y424D02*
Y474D01*
X-332Y424D02*
X-332Y424D01*
X-350Y592D02*
X-305Y547D01*
X-594Y800D02*
Y850D01*
X-522Y858D02*
Y898D01*
X-521Y898D01*
X-201Y304D02*
X-151D01*
Y357D02*
X-101D01*
X-279Y474D02*
X-254D01*
X-222Y606D02*
X-150Y534D01*
X-350Y612D02*
X-344Y606D01*
X-350Y592D02*
Y612D01*
X36Y540D02*
Y590D01*
X-619Y296D02*
Y346D01*
Y296D02*
X-575Y252D01*
X-547Y449D02*
X-521Y475D01*
X-522Y352D02*
X-521Y353D01*
Y425D01*
X-1168Y1150D02*
X-1137Y1119D01*
X-364Y875D02*
X-332D01*
X-319Y860D02*
X-318Y861D01*
X-317Y862D01*
X-332Y875D02*
X-318Y861D01*
X36Y590D02*
Y707D01*
X18Y725D02*
X36Y707D01*
X18Y725D02*
Y858D01*
X-153Y591D02*
X-150Y588D01*
Y534D02*
Y588D01*
X-143Y814D02*
X-143Y813D01*
X-383Y424D02*
X-332D01*
X-390Y431D02*
X-383Y424D01*
X-1205Y92D02*
Y172D01*
X-1204Y173D01*
X-1224Y1102D02*
Y1150D01*
X-1224Y1150D02*
X-1224Y1150D01*
X-1300Y1150D02*
X-1224D01*
X-1168D01*
X-376Y863D02*
X-364Y875D01*
X-873Y470D02*
X-870D01*
X-951Y548D02*
X-873Y470D01*
X-409Y686D02*
X-409Y686D01*
X-311Y667D02*
X-279Y635D01*
X-207D01*
X-151Y653D02*
X-150Y655D01*
X-323Y810D02*
Y817D01*
X-376D02*
Y863D01*
X-332Y524D02*
Y537D01*
X-254Y474D02*
X-236Y456D01*
X-594Y950D02*
X-566D01*
Y950D02*
X-521D01*
X-179Y739D02*
X-143D01*
X-390Y540D02*
Y614D01*
X-370Y575D02*
X-332Y537D01*
X-426Y686D02*
X-409D01*
X-477Y525D02*
Y635D01*
X-426Y686D01*
X-434Y706D02*
X-409D01*
X-574Y525D02*
Y566D01*
X-434Y706D01*
X-547Y399D02*
Y449D01*
X-558Y388D02*
X-547Y399D01*
X-595Y388D02*
X-558D01*
X-606Y399D02*
X-595Y388D01*
X-444Y726D02*
X-409D01*
X-606Y399D02*
Y564D01*
X-444Y726D01*
X-587Y352D02*
X-575D01*
X-626Y391D02*
X-587Y352D01*
X-390Y745D02*
X-390Y745D01*
X-452Y745D02*
X-390D01*
X-626Y391D02*
Y572D01*
X-452Y745D01*
X-548Y224D02*
Y326D01*
X-557Y215D02*
X-548Y224D01*
X-604Y215D02*
X-557D01*
X-370Y745D02*
Y760D01*
X-379Y769D02*
X-370Y760D01*
X-655Y266D02*
X-604Y215D01*
X-400Y769D02*
X-379D01*
X-404Y765D02*
X-400Y769D01*
X-471Y765D02*
X-404D01*
X-655Y266D02*
Y581D01*
X-471Y765D01*
X-607Y678D02*
Y699D01*
X-755Y530D02*
X-607Y678D01*
X-812Y519D02*
X-801Y530D01*
X-755D01*
X-951Y548D02*
Y567D01*
D30*
X-831Y902D02*
X-778Y849D01*
Y784D02*
Y849D01*
Y784D02*
X-777Y783D01*
X-817Y723D02*
X-817Y723D01*
X-958Y723D02*
X-817D01*
X-958Y723D02*
X-958Y723D01*
X18Y858D02*
X62Y902D01*
X168D01*
X18Y347D02*
X62Y302D01*
X168D01*
X-715Y850D02*
X-647D01*
X-846Y981D02*
X-715Y850D01*
X-885Y981D02*
X-846D01*
X-1300Y550D02*
X-1091D01*
X-1090Y549D01*
Y470D02*
Y549D01*
X-1100Y284D02*
X-860D01*
X-1100Y397D02*
X-1090Y407D01*
Y470D01*
X-1205Y0D02*
X-1100D01*
Y284D02*
Y397D01*
Y950D02*
Y1200D01*
X-1300Y950D02*
X-1055D01*
X-1007Y902D01*
X-831D01*
X-817Y723D02*
X-812Y728D01*
X-958Y723D02*
X-913D01*
X-1052Y831D02*
X-885D01*
X-1090Y793D02*
X-1052Y831D01*
X-1090Y549D02*
Y793D01*
X-1100Y0D02*
Y284D01*
X-767Y1036D02*
X-698Y1105D01*
X-125D01*
X-860Y284D02*
Y378D01*
X-824Y414D01*
X-824Y414D02*
X-824Y414D01*
X-824Y414D02*
Y481D01*
D31*
X-138Y446D02*
X-52D01*
X-4Y494D01*
X-1300Y1050D02*
X-1203D01*
X-1188Y1065D01*
Y1102D01*
X-719Y726D02*
X-671D01*
X-745Y700D02*
X-719Y726D01*
X-758Y670D02*
Y700D01*
X-782D02*
X-758D01*
X-745D01*
D32*
X-824Y481D02*
Y507D01*
X-812Y519D01*
D33*
X-1300Y1150D02*
D03*
Y1050D02*
D03*
Y950D02*
D03*
Y850D02*
D03*
Y750D02*
D03*
Y650D02*
D03*
Y550D02*
D03*
Y450D02*
D03*
Y350D02*
D03*
Y250D02*
D03*
Y150D02*
D03*
Y50D02*
D03*
D34*
X-512Y169D02*
D03*
X-434D02*
D03*
X-355D02*
D03*
X-276D02*
D03*
X-197D02*
D03*
X-119D02*
D03*
X-40D02*
D03*
X39D02*
D03*
X117D02*
D03*
X196D02*
D03*
X-512Y1035D02*
D03*
X-434D02*
D03*
X-355D02*
D03*
X-276D02*
D03*
X-197D02*
D03*
X-119D02*
D03*
X-40D02*
D03*
X39D02*
D03*
X117D02*
D03*
X196D02*
D03*
D35*
X-1100Y1200D02*
D03*
X-1000D02*
D03*
X-900D02*
D03*
X-800D02*
D03*
X-700D02*
D03*
X-600D02*
D03*
X-500D02*
D03*
X-400D02*
D03*
X-300D02*
D03*
X-200D02*
D03*
X-100D02*
D03*
X0D02*
D03*
Y0D02*
D03*
X-100D02*
D03*
X-200D02*
D03*
X-300D02*
D03*
X-400D02*
D03*
X-500D02*
D03*
X-600D02*
D03*
X-700D02*
D03*
X-800D02*
D03*
X-900D02*
D03*
X-1000D02*
D03*
X-1100D02*
D03*
D36*
X-860Y284D02*
D03*
Y206D02*
D03*
D37*
X18Y347D02*
D03*
Y858D02*
D03*
X168Y302D02*
D03*
Y902D02*
D03*
D38*
X-1200Y1200D02*
D03*
X100Y0D02*
D03*
D39*
X-560Y915D02*
D03*
X-447Y423D02*
D03*
X-122Y327D02*
D03*
X-161Y591D02*
D03*
X-197Y677D02*
D03*
X-179Y738D02*
D03*
X-812Y728D02*
D03*
X-777Y783D02*
D03*
X-150Y943D02*
D03*
X-232Y942D02*
D03*
X-179Y814D02*
D03*
X-138Y446D02*
D03*
X-410Y974D02*
D03*
X-346Y86D02*
D03*
X-619Y346D02*
D03*
X-928Y634D02*
D03*
X-1133Y634D02*
D03*
X-994D02*
D03*
X-1137Y1119D02*
D03*
X-566Y950D02*
D03*
X-390Y431D02*
D03*
X-758Y670D02*
D03*
X-767Y1036D02*
D03*
X-125Y1105D02*
D03*
X-1204Y173D02*
D03*
X-304Y240D02*
D03*
X-730Y865D02*
D03*
X-717Y611D02*
D03*
X-951Y548D02*
D03*
X-751Y471D02*
D03*
X-208Y964D02*
D03*
X-317Y862D02*
D03*
X-484Y102D02*
D03*
X-81Y226D02*
D03*
D40*
X-377Y679D02*
D03*
X-344Y679D02*
D03*
X-377Y715D02*
D03*
X-344D02*
D03*
M02*
